<svg width="128" height="128" viewBox="0 0 128 128" fill="none" xmlns="http://www.w3.org/2000/svg">
<g clip-path="url(#clip0_290_446)">
<path d="M30.2551 0.947451H97.5751C113.841 0.947451 127.028 14.1338 127.028 30.4V97.7199C127.028 113.986 113.841 127.172 97.5751 127.172H30.2551C13.9889 127.172 0.802554 113.986 0.802554 97.7199V30.4C0.802554 14.1338 13.9889 0.947451 30.2551 0.947451Z" fill="#0277BD" stroke="#085641" stroke-width="0.495"/>
<path d="M27.1626 51.512L28.5797 67.3233H63.9626V51.512H27.1626Z" fill="#EBEBEB"/>
<path d="M63.9621 19.5098H63.9076H24.315L25.7523 35.3212H63.9621V19.5098Z" fill="#EBEBEB"/>
<path d="M63.962 109.026V92.5758L63.8927 92.5941L46.2837 87.8396L45.158 75.229H36.6013H29.286L31.5011 100.055L63.8892 109.046L63.962 109.026Z" fill="#EBEBEB"/>
<path d="M83.3775 67.3233L81.542 87.8292L63.9076 92.5891V109.038L96.3217 100.055L96.5593 97.3837L100.275 55.7581L100.66 51.512L103.515 19.5098H63.9076V35.3212H86.1871L84.7486 51.512H63.9076V67.3233H83.3775Z" fill="#F5F5F5"/>
</g>
<defs>
<clipPath id="clip0_290_446">
<rect width="126.72" height="126.72" fill="white" transform="translate(0.555054 0.699951)"/>
</clipPath>
</defs>
</svg>
