<svg width="127" height="127" viewBox="0 0 127 127" fill="none" xmlns="http://www.w3.org/2000/svg">
<g clip-path="url(#clip0_189_140)">
<path d="M29.8802 4.22996H97.2002C111.416 4.22996 122.94 15.7541 122.94 29.97V97.29C122.94 111.506 111.416 123.03 97.2002 123.03H29.8802C15.6644 123.03 4.14018 111.506 4.14018 97.29V29.97C4.14018 15.7541 15.6644 4.22996 29.8802 4.22996Z" fill="#0277BD" stroke="#085641" stroke-width="7.92"/>
<path d="M26.7878 51.0822L28.2049 66.8934H63.5878V51.0822H26.7878Z" fill="#EBEBEB"/>
<path d="M63.5872 19.08H63.5328H23.9402L25.3775 34.8914H63.5872V19.08Z" fill="#EBEBEB"/>
<path d="M63.5871 108.596V92.1459L63.5178 92.1642L45.9088 87.4098L44.7832 74.7991H36.2265H28.9111L31.1263 99.6254L63.5144 108.617L63.5871 108.596Z" fill="#EBEBEB"/>
<path d="M83.0025 66.8935L81.1671 87.3994L63.5327 92.1593V108.609L95.9468 99.6254L96.1844 96.9538L99.8999 55.3283L100.285 51.0822L103.14 19.08H63.5327V34.8914H85.8122L84.3737 51.0822H63.5327V66.8935H83.0025Z" fill="#F5F5F5"/>
</g>
<defs>
<clipPath id="clip0_189_140">
<rect width="126.72" height="126.72" fill="white" transform="translate(0.180176 0.269958)"/>
</clipPath>
</defs>
</svg>
