<svg width="128" height="128" viewBox="0 0 128 128" fill="none" xmlns="http://www.w3.org/2000/svg">
<g clip-path="url(#clip0_208_576)">
<path d="M30.2498 4.26005H97.5698C111.786 4.26005 123.31 15.7842 123.31 30V97.32C123.31 111.536 111.786 123.06 97.5698 123.06H30.2498C16.034 123.06 4.5098 111.536 4.5098 97.32V30C4.5098 15.7842 16.034 4.26005 30.2498 4.26005Z" fill="#242938" stroke="#085641" stroke-width="7.92"/>
<mask id="mask0_208_576" style="mask-type:luminance" maskUnits="userSpaceOnUse" x="30" y="14" width="67" height="100">
<path d="M96.7578 14.1599H30.7446V113.16H96.7578V14.1599Z" fill="white"/>
</mask>
<g mask="url(#mask0_208_576)">
<path d="M47.252 113.16C56.3601 113.16 63.752 105.768 63.752 96.6602V80.1599H47.252C38.144 80.1599 30.752 87.5522 30.752 96.6602C30.752 105.768 38.144 113.16 47.252 113.16Z" fill="#0ACF83"/>
<path d="M30.752 63.6601C30.752 54.5521 38.144 47.1602 47.252 47.1602H63.752V80.16H47.252C38.144 80.16 30.752 72.7681 30.752 63.6601Z" fill="#A259FF"/>
<path d="M30.752 30.6601C30.752 21.5521 38.144 14.1602 47.252 14.1602H63.752V47.1602H47.252C38.144 47.1602 30.752 39.7681 30.752 30.6601Z" fill="#F24E1E"/>
<path d="M63.752 14.1602H80.2518C89.3598 14.1602 96.7521 21.5521 96.7521 30.6601C96.7521 39.7681 89.3598 47.1602 80.2518 47.1602H63.752V14.1602Z" fill="#FF7262"/>
<path d="M96.7521 63.6601C96.7521 72.7681 89.3598 80.16 80.2518 80.16C71.1438 80.16 63.752 72.7681 63.752 63.6601C63.752 54.5521 71.1438 47.1602 80.2518 47.1602C89.3598 47.1602 96.7521 54.5521 96.7521 63.6601Z" fill="#1ABCFE"/>
</g>
</g>
<defs>
<clipPath id="clip0_208_576">
<rect width="126.72" height="126.72" fill="white" transform="translate(0.549805 0.300049)"/>
</clipPath>
</defs>
</svg>
