<svg width="128" height="128" viewBox="0 0 128 128" fill="none" xmlns="http://www.w3.org/2000/svg">
<g clip-path="url(#clip0_207_300)">
<path d="M30.2894 4.6699H97.6094C111.825 4.6699 123.349 16.1941 123.349 30.4099V97.7299C123.349 111.946 111.825 123.47 97.6094 123.47H30.2894C16.0735 123.47 4.54936 111.946 4.54936 97.7299V30.4099C4.54936 16.1941 16.0735 4.6699 30.2894 4.6699Z" fill="#242938" stroke="#085641" stroke-width="7.92"/>
<path d="M24.9226 50.3317H38.9846C43.1119 50.3664 46.1027 51.5564 47.957 53.8997C49.8112 56.243 50.4231 59.4437 49.7934 63.5017C49.5489 65.356 49.0064 67.1746 48.1669 68.9586C47.362 70.7426 46.2433 72.3513 44.8088 73.7858C43.0594 75.6044 41.1883 76.7588 39.1945 77.2488C37.2006 77.7389 35.1365 77.9834 33.003 77.9834H26.7066L24.7128 87.9527H17.4194L24.9226 50.3317ZM31.0616 56.3133L27.9134 72.0543C28.1233 72.089 28.3332 72.1068 28.5431 72.1068C28.7876 72.1068 29.0331 72.1068 29.2777 72.1068C32.6357 72.1414 35.4345 71.8098 37.6729 71.1098C39.9112 70.3753 41.416 67.8221 42.1853 63.4492C42.8149 59.7763 42.1853 57.6597 40.2964 57.1004C38.4421 56.541 36.1166 56.2787 33.3178 56.3133C32.8981 56.348 32.4961 56.3658 32.111 56.3658C31.7616 56.3658 31.3943 56.3658 31.0092 56.3658L31.0616 56.3133Z" fill="#F5F5F5"/>
<path d="M58.1016 40.3099H65.3424L63.2961 50.3317H69.8024C73.3704 50.402 76.0285 51.1366 77.7778 52.5354C79.5618 53.9343 80.0865 56.5935 79.3519 60.5109L75.8364 77.9834H68.4906L71.8487 61.2979C72.1982 59.5486 72.0933 58.3071 71.5339 57.5726C70.9746 56.838 69.7677 56.4707 67.9135 56.4707L62.0893 56.4182L57.7868 77.9834H50.5459L58.1016 40.3099Z" fill="#F5F5F5"/>
<path d="M87.1277 50.3317H101.19C105.317 50.3664 108.308 51.5564 110.162 53.8997C112.016 56.243 112.628 59.4437 111.998 63.5017C111.754 65.356 111.211 67.1746 110.372 68.9586C109.567 70.7426 108.448 72.3513 107.014 73.7858C105.265 75.6044 103.393 76.7588 101.4 77.2488C99.4057 77.7389 97.3415 77.9834 95.2081 77.9834H88.9117L86.9178 87.9527H79.6245L87.1277 50.3317ZM93.2667 56.3133L90.1185 72.0543C90.3284 72.089 90.5383 72.1068 90.7482 72.1068C90.9927 72.1068 91.2382 72.1068 91.4827 72.1068C94.8408 72.1414 97.6395 71.8098 99.8779 71.1098C102.116 70.3753 103.621 67.8221 104.39 63.4492C105.02 59.7763 104.39 57.6597 102.501 57.1004C100.647 56.541 98.3216 56.2787 95.5229 56.3133C95.1032 56.348 94.7012 56.3658 94.3161 56.3658C93.9666 56.3658 93.5993 56.3658 93.2142 56.3658L93.2667 56.3133Z" fill="#F5F5F5"/>
</g>
<defs>
<clipPath id="clip0_207_300">
<rect width="126.72" height="126.72" fill="white" transform="translate(0.589844 0.7099)"/>
</clipPath>
</defs>
</svg>
