<svg width="128" height="128" viewBox="0 0 128 128" fill="none" xmlns="http://www.w3.org/2000/svg">
<g clip-path="url(#clip0_290_463)">
<path d="M97.6549 0.699951H30.3349C13.9321 0.699951 0.634949 13.9971 0.634949 30.4V97.7199C0.634949 114.123 13.9321 127.42 30.3349 127.42H97.6549C114.058 127.42 127.355 114.123 127.355 97.7199V30.4C127.355 13.9971 114.058 0.699951 97.6549 0.699951Z" fill="#007ACC"/>
<path d="M28.6574 64.48L28.6172 69.6695H36.864H45.1109V93.1029V116.536H50.9442H56.7773V93.1029V69.6695H65.024H73.2707V64.5805C73.2707 61.7644 73.2108 59.4112 73.1301 59.3508C73.0697 59.2706 63.0326 59.23 50.8635 59.2503L28.7178 59.3107L28.6574 64.48Z" fill="#F5F5F5"/>
<path d="M102.886 59.1634C106.104 59.9682 108.558 61.3963 110.811 63.7292C111.977 64.9766 113.707 67.2497 113.848 67.7927C113.888 67.9536 108.377 71.6547 105.038 73.7263C104.917 73.807 104.434 73.2837 103.891 72.4794C102.262 70.1058 100.552 69.0797 97.9371 68.899C94.0954 68.6372 91.6214 70.6489 91.6417 74.0079C91.6417 74.9935 91.7822 75.5766 92.1847 76.3814C93.0292 78.1313 94.5983 79.1772 99.5265 81.3092C108.598 85.2118 112.48 87.7862 114.894 91.4468C117.589 95.53 118.192 102.047 116.362 106.895C114.351 112.165 109.362 115.745 102.342 116.932C100.17 117.314 95.0205 117.254 92.6876 116.831C87.5985 115.926 82.7713 113.412 79.7943 110.113C78.6276 108.826 76.3546 105.467 76.4957 105.225C76.5555 105.145 77.0788 104.823 77.6619 104.481C78.2252 104.159 80.3576 102.932 82.3688 101.766L86.0096 99.6534L86.7738 100.78C87.8401 102.409 90.173 104.642 91.5813 105.386C95.6239 107.518 101.176 107.216 103.911 104.763C105.078 103.697 105.561 102.59 105.561 100.961C105.561 99.4925 105.379 98.849 104.615 97.7427C103.63 96.3349 101.618 95.1479 95.9056 92.6739C89.3686 89.8578 86.5526 88.108 83.9781 85.332C82.4896 83.7233 81.0813 81.1483 80.4982 78.996C80.0156 77.2061 79.8948 72.7204 80.277 70.9102C81.6244 64.5945 86.3917 60.1895 93.2707 58.8817C95.5037 58.4595 100.693 58.6204 102.886 59.1634Z" fill="#F5F5F5"/>
</g>
<defs>
<clipPath id="clip0_290_463">
<rect width="126.72" height="126.72" fill="white" transform="translate(0.634949 0.699951)"/>
</clipPath>
</defs>
</svg>
