<svg width="44" height="49" viewBox="0 0 44 49" fill="none" xmlns="http://www.w3.org/2000/svg">
<path d="M13.1936 29.1769C13.8484 29.6274 13.7731 30.7212 13.0526 31.0569C6.62389 34.052 1.94321 40.1696 0.960267 47.4601C0.889687 47.9835 1.30598 48.4372 1.8342 48.4372H42.1949C42.7231 48.4372 43.1394 47.9835 43.0688 47.4601C42.0859 40.1696 37.4052 34.052 30.9765 31.0569C30.256 30.7212 30.1807 29.6274 30.8355 29.1769C34.9181 26.3678 37.5949 21.6626 37.5949 16.3323C37.5949 7.7275 30.6193 0.751953 22.0146 0.751953C13.4098 0.751953 6.43423 7.7275 6.43423 16.3323C6.43423 21.6626 9.11098 26.3678 13.1936 29.1769Z" fill="#F5CB5C"/>
</svg>
