<svg width="39" height="44" viewBox="0 0 39 44" fill="none" xmlns="http://www.w3.org/2000/svg">
<path d="M11.4244 26.2582C12.0137 26.6637 11.9459 27.6481 11.2975 27.9502C5.51161 30.6458 1.299 36.1517 0.41435 42.7131C0.350828 43.1842 0.725489 43.5925 1.20089 43.5925H37.5255C38.0009 43.5925 38.3756 43.1842 38.3121 42.7131C37.4274 36.1517 33.2148 30.6458 27.429 27.9502C26.7806 27.6481 26.7127 26.6637 27.302 26.2582C30.9764 23.73 33.3855 19.4954 33.3855 14.6981C33.3855 6.95378 27.1075 0.675781 19.3632 0.675781C11.6189 0.675781 5.34091 6.95378 5.34091 14.6981C5.34091 19.4954 7.74999 23.73 11.4244 26.2582Z" fill="#F5F5F5"/>
</svg>
