<svg width="65" height="64" viewBox="0 0 65 64" fill="none" xmlns="http://www.w3.org/2000/svg">
<path d="M23.1936 36.1764C23.8484 36.6269 23.7731 37.7208 23.0526 38.0564C16.6239 41.0515 11.9432 47.1691 10.9603 54.4596C10.8897 54.9831 11.306 55.4367 11.8342 55.4367H52.1949C52.7231 55.4367 53.1394 54.9831 53.0688 54.4596C52.0859 47.1691 47.4052 41.0515 40.9765 38.0564C40.256 37.7208 40.1807 36.6269 40.8355 36.1764C44.9181 33.3673 47.5949 28.6622 47.5949 23.3318C47.5949 14.727 40.6193 7.7515 32.0146 7.7515C23.4098 7.7515 16.4342 14.727 16.4342 23.3318C16.4342 28.6622 19.111 33.3673 23.1936 36.1764Z" fill="#F5F5F5"/>
</svg>
