<svg width="768" height="1534" viewBox="0 0 768 1534" fill="none" xmlns="http://www.w3.org/2000/svg">
<path fill-rule="evenodd" clip-rule="evenodd" d="M-1254.76 683.392L-195.394 13.2712C-187.926 8.54728 -178.043 10.7717 -173.319 18.2396L807.647 1569.01C812.371 1576.48 810.146 1586.36 802.679 1591.09L-256.689 2261.21C-264.157 2265.93 -274.04 2263.71 -278.764 2256.24L-1259.73 705.467C-1264.45 697.999 -1262.23 688.116 -1254.76 683.392ZM-1268.74 711.169C-1276.62 698.723 -1272.91 682.25 -1260.46 674.377L-201.096 4.25667C-188.65 -3.61651 -172.178 0.0908273 -164.304 12.5373L816.661 1563.31C824.535 1575.75 820.827 1592.23 808.381 1600.1L-250.987 2270.22C-263.433 2278.09 -279.905 2274.39 -287.779 2261.94L-1268.74 711.169ZM-1151.89 728.775L-198.459 125.667C-191.738 121.415 -182.843 123.417 -178.591 130.138L704.278 1525.83C708.529 1532.55 706.527 1541.45 699.806 1545.7L-253.625 2148.81C-260.346 2153.06 -269.241 2151.06 -273.492 2144.34L-1156.36 748.643C-1160.61 741.922 -1158.61 733.027 -1151.89 728.775ZM-1164.47 753.775C-1171.56 742.573 -1168.22 727.748 -1157.02 720.662L-203.591 117.554C-192.389 110.468 -177.564 113.804 -170.478 125.006L712.391 1520.7C719.477 1531.9 716.14 1546.73 704.938 1553.81L-248.493 2156.92C-259.694 2164.01 -274.519 2160.67 -281.605 2149.47L-1164.47 753.775Z" fill="#F5F5F5"/>
</svg>
