<svg width="711" height="2050" viewBox="0 0 711 2050" fill="none" xmlns="http://www.w3.org/2000/svg">
<path fill-rule="evenodd" clip-rule="evenodd" d="M13.6507 1216.97L811.142 18.1118C816.036 10.7544 825.968 8.75755 833.326 13.6518L2032.19 811.143C2039.55 816.037 2041.54 825.969 2036.65 833.327L1239.16 2032.19C1234.26 2039.55 1224.33 2041.54 1216.97 2036.65L18.1107 1239.16C10.7533 1234.26 8.75652 1224.33 13.6507 1216.97ZM12.2029 1248.04C-0.0594385 1239.88 -3.38745 1223.33 4.76955 1211.07L802.261 12.204C810.418 -0.0584303 826.971 -3.38639 839.233 4.77061L2038.1 802.262C2050.36 810.419 2053.69 826.972 2045.53 839.234L1248.04 2038.1C1239.88 2050.36 1223.33 2053.69 1211.07 2045.53L12.2029 1248.04ZM114.8 1197.79L832.542 118.815C836.947 112.194 845.886 110.396 852.508 114.801L1931.48 832.543C1938.11 836.948 1939.9 845.887 1935.5 852.508L1217.76 1931.48C1213.35 1938.11 1204.41 1939.9 1197.79 1935.5L118.814 1217.76C112.193 1213.35 110.396 1204.41 114.8 1197.79ZM113.497 1225.75C102.461 1218.41 99.4659 1203.51 106.807 1192.47L824.549 113.498C831.891 102.462 846.788 99.4668 857.825 106.808L1936.8 824.55C1947.84 831.891 1950.83 846.789 1943.49 857.825L1225.75 1936.8C1218.41 1947.84 1203.51 1950.83 1192.47 1943.49L113.497 1225.75Z" fill="#F5F5F5"/>
</svg>
