<svg width="20" height="21" viewBox="0 0 20 21" fill="none" xmlns="http://www.w3.org/2000/svg">
<path fill-rule="evenodd" clip-rule="evenodd" d="M3.37599 1.26185C2.60369 0.489541 1.35153 0.489541 0.579229 1.26185C-0.193076 2.03415 -0.193076 3.28631 0.579229 4.05861L7.20324 10.6826L0.579242 17.3066C-0.193063 18.0789 -0.193064 19.3311 0.579241 20.1034C1.35155 20.8757 2.6037 20.8757 3.37601 20.1034L10 13.4794L16.624 20.1034C17.3963 20.8757 18.6485 20.8757 19.4208 20.1034C20.1931 19.3311 20.1931 18.0789 19.4208 17.3066L12.7968 10.6826L19.4208 4.05861C20.1931 3.28631 20.1931 2.03415 19.4208 1.26185C18.6485 0.489541 17.3963 0.489541 16.624 1.26185L10 7.88586L3.37599 1.26185Z" fill="#333533"/>
</svg>
