<svg width="58" height="40" viewBox="0 0 58 40" fill="none" xmlns="http://www.w3.org/2000/svg">
<path fill-rule="evenodd" clip-rule="evenodd" d="M57.8 1.60525C57.8 1.04715 57.3476 0.594727 56.7895 0.594727H1.21054C0.65244 0.594727 0.200012 1.04715 0.200012 1.60525V38.9947C0.200012 39.5528 0.65244 40.0053 1.21054 40.0053H56.7895C57.3476 40.0053 57.8 39.5528 57.8 38.9947V1.60525ZM3.84304 2.82176C3.39871 2.48407 2.76474 2.57052 2.42705 3.01485C2.08935 3.45919 2.1758 4.09315 2.62014 4.43085L27.8653 23.6172C27.9242 23.6641 27.9876 23.7038 28.0541 23.7359C28.1911 23.8024 28.3385 23.8356 28.4853 23.8368C28.7074 23.8388 28.9282 23.7677 29.1093 23.6288L55.3647 4.44219C55.8153 4.11291 55.9136 3.48068 55.5843 3.03008C55.255 2.57947 54.6228 2.48113 54.1722 2.81042L28.5066 21.5661L3.84304 2.82176Z" fill="#F5F5F5"/>
</svg>
