<svg width="97" height="171" viewBox="0 0 97 171" fill="none" xmlns="http://www.w3.org/2000/svg">
<path d="M58.0238 7.68539C58.0238 3.44087 54.584 0 50.3408 0C46.0976 0 42.6578 3.44087 42.6578 7.68539L42.6578 163.315C42.6578 167.559 46.0976 171 50.3408 171C54.584 171 58.0238 167.559 58.0238 163.315L58.0238 7.68539Z" fill="#333533" fill-opacity="0.25"/>
<path d="M15.715 20.2322C21.853 16.1048 28.957 14.1467 35.9352 13.402V32.7765C32.111 33.3863 28.9011 34.5165 26.4306 36.1777C22.7212 38.6721 19.2098 43.3456 19.2098 53.9126C19.2098 60.0856 24.2239 65.6849 33.2822 70.4479C34.166 70.9126 35.0538 71.35 35.9352 71.7605V92.4872C32.4993 91.2654 28.4473 89.6119 24.3451 87.4549C14.1958 82.1181 0.00229817 71.642 0.00229817 53.9126C0.00229817 38.3022 5.66432 26.9906 15.715 20.2322Z" fill="#333533" fill-opacity="0.25"/>
<path d="M35.9352 134.601C31.8509 133.676 27.9893 132.598 24.6089 131.548C21.1617 130.477 18.2943 129.461 16.3046 128.719C15.3112 128.348 14.5407 128.047 14.0305 127.844C13.7755 127.743 13.5859 127.666 13.4664 127.617L13.3404 127.565L13.3233 127.558L9.75944 136.051C13.3232 127.558 13.3187 127.556 13.3187 127.556C8.42915 125.506 2.80323 127.807 0.750991 132.698C-1.30188 137.59 0.998559 143.22 5.88916 145.274L9.60623 136.416C5.88916 145.274 5.89489 145.276 5.89489 145.276L5.9024 145.279L5.92279 145.288L5.98482 145.314C6.03555 145.335 6.10492 145.363 6.19236 145.399C6.3672 145.471 6.61441 145.571 6.92918 145.696C7.55849 145.947 8.45921 146.298 9.59289 146.721C11.8573 147.566 15.0673 148.703 18.9128 149.897C23.692 151.382 29.5799 152.995 35.9352 154.234V134.601Z" fill="#333533" fill-opacity="0.25"/>
<path d="M71.8616 83.5641C69.4351 82.4 67.0271 81.4171 64.7464 80.5913V101.478C72.9198 105.661 77.7926 111.039 77.7925 118.08C77.7925 127.955 74.3158 131.955 70.5278 134.09C68.8973 135.009 66.9582 135.716 64.7464 136.214V155.723C70.0414 154.98 75.2553 153.479 79.9552 150.83C90.7528 144.745 96.9999 133.704 97 118.08C97.0001 99.2016 82.6607 88.7446 71.8616 83.5641Z" fill="#333533" fill-opacity="0.25"/>
<path d="M74.1048 17.7457C71.3361 16.9739 68.1705 16.1739 64.7464 15.4567V35.1556C66.2129 35.5131 67.6196 35.8834 68.9485 36.2539C72.1662 37.1509 74.8416 38.0244 76.6949 38.667C77.62 38.9877 78.3357 39.2493 78.8068 39.4255C79.0423 39.5135 79.2162 39.58 79.3242 39.6217L79.4456 39.6689L79.4536 39.6721C84.3804 41.6263 89.9594 39.2184 91.9178 34.2907C93.8772 29.3603 91.4701 23.7746 86.5413 21.8146L82.9934 30.7417C86.5413 21.8146 86.535 21.8121 86.535 21.8121L86.5271 21.8089L86.5062 21.8007L86.4443 21.7763C86.3942 21.7567 86.3264 21.7303 86.2416 21.6975C86.0719 21.632 85.8337 21.541 85.5317 21.4281C84.9278 21.2023 84.0668 20.888 82.9852 20.513C80.8252 19.7641 77.7672 18.7666 74.1048 17.7457Z" fill="#333533" fill-opacity="0.25"/>
</svg>
