<svg width="375" height="269" viewBox="0 0 375 269" fill="none" xmlns="http://www.w3.org/2000/svg">
<path fill-rule="evenodd" clip-rule="evenodd" d="M341.234 94.4388C360.656 88.2913 374.733 70.1236 374.733 48.668C374.733 22.1583 353.243 0.667969 326.733 0.667969C303.248 0.667969 283.702 17.535 279.548 39.8163C268.215 35.8339 256.027 33.668 243.333 33.668C183.024 33.668 134.133 82.5585 134.133 142.868C134.133 203.177 183.024 252.068 243.333 252.068C303.643 252.068 352.533 203.177 352.533 142.868C352.533 125.476 348.467 109.033 341.234 94.4388Z" fill="#F5F5F5"/>
<path fill-rule="evenodd" clip-rule="evenodd" d="M278.673 125.363C278.673 125.22 278.617 125.083 278.515 124.981L250.382 96.8263C250.281 96.7249 250.143 96.668 250 96.668H208.473C208.175 96.668 207.933 96.9097 207.933 97.208V188.468C207.933 188.766 208.175 189.008 208.473 189.008H278.133C278.432 189.008 278.673 188.766 278.673 188.468V125.363ZM250.224 99.1688C250.542 99.1688 250.8 99.4272 250.8 99.746V124.562H274.829C275.147 124.562 275.406 124.821 275.406 125.139C275.406 125.458 275.147 125.717 274.829 125.717H249.647V99.746C249.647 99.4272 249.905 99.1688 250.224 99.1688ZM213.7 110.519C213.7 109.457 214.561 108.595 215.623 108.595H246.764V112.443H215.623C214.561 112.443 213.7 111.581 213.7 110.519ZM215.623 133.219C214.561 133.219 213.7 134.081 213.7 135.143C213.7 136.205 214.561 137.067 215.623 137.067H270.984C272.046 137.067 272.907 136.205 272.907 135.143C272.907 134.081 272.046 133.219 270.984 133.219H215.623ZM213.7 147.455C213.7 146.393 214.561 145.531 215.623 145.531H270.984C272.046 145.531 272.907 146.393 272.907 147.455C272.907 148.517 272.046 149.379 270.984 149.379H215.623C214.561 149.379 213.7 148.517 213.7 147.455ZM215.623 157.843C214.561 157.843 213.7 158.705 213.7 159.767C213.7 160.829 214.561 161.691 215.623 161.691H270.984C272.046 161.691 272.907 160.829 272.907 159.767C272.907 158.705 272.046 157.843 270.984 157.843H215.623ZM213.7 172.079C213.7 171.017 214.561 170.155 215.623 170.155H270.984C272.046 170.155 272.907 171.017 272.907 172.079C272.907 173.141 272.046 174.003 270.984 174.003H215.623C214.561 174.003 213.7 173.141 213.7 172.079ZM215.623 120.907C214.561 120.907 213.7 121.769 213.7 122.831C213.7 123.893 214.561 124.755 215.623 124.755H246.764V120.907H215.623Z" fill="#333533"/>
<path d="M12.7174 214.58V203.672H18.6934V214.58H12.7174ZM7.74941 222.068V217.532H10.2334V222.068H7.74941ZM7.74941 200.684V196.148H10.2334V200.684H7.74941ZM7.74941 200.684V196.148H10.2334V200.684H7.74941ZM18.6934 203.708H12.7174C12.7174 202.748 12.4894 202.004 12.0334 201.476C11.6014 200.948 11.0014 200.684 10.2334 200.684V196.148C11.8414 196.148 13.2814 196.484 14.5534 197.156C15.8254 197.804 16.8334 198.704 17.5774 199.856C18.3214 200.984 18.6934 202.268 18.6934 203.708ZM18.6934 214.508C18.6934 215.948 18.3214 217.244 17.5774 218.396C16.8334 219.524 15.8254 220.424 14.5534 221.096C13.2814 221.744 11.8414 222.068 10.2334 222.068V217.532C11.0014 217.532 11.6014 217.268 12.0334 216.74C12.4894 216.212 12.7174 215.468 12.7174 214.508H18.6934ZM2.4934 222.068V196.148H8.4694V222.068H2.4934ZM32.1813 214.004V211.412H38.1573V214.004H32.1813ZM21.5973 214.004V211.412H27.5733V214.004H21.5973ZM29.6613 207.344V202.808H30.0933V207.344H29.6613ZM29.6613 222.608V218.072H30.0933V222.608H29.6613ZM21.5973 211.448C21.5973 209.792 21.9453 208.316 22.6413 207.02C23.3613 205.724 24.3333 204.704 25.5573 203.96C26.7813 203.192 28.1613 202.808 29.6973 202.808V207.344C29.0253 207.344 28.4973 207.704 28.1133 208.424C27.7533 209.144 27.5733 210.152 27.5733 211.448H21.5973ZM38.1573 211.448H32.1813C32.1813 210.152 31.9893 209.144 31.6053 208.424C31.2453 207.704 30.7293 207.344 30.0573 207.344V202.808C31.6173 202.808 32.9973 203.192 34.1973 203.96C35.4213 204.704 36.3813 205.724 37.0773 207.02C37.7973 208.316 38.1573 209.792 38.1573 211.448ZM21.5973 213.968H27.5733C27.5733 215.264 27.7533 216.272 28.1133 216.992C28.4973 217.712 29.0253 218.072 29.6973 218.072V222.608C28.1613 222.608 26.7813 222.236 25.5573 221.492C24.3333 220.724 23.3613 219.692 22.6413 218.396C21.9453 217.076 21.5973 215.6 21.5973 213.968ZM38.1573 213.968C38.1573 215.6 37.7973 217.076 37.0773 218.396C36.3813 219.692 35.4213 220.724 34.1973 221.492C32.9973 222.236 31.6173 222.608 30.0573 222.608V218.072C30.7293 218.072 31.2453 217.712 31.6053 216.992C31.9893 216.272 32.1813 215.264 32.1813 213.968H38.1573ZM57.2472 222.068L61.0632 203.348H67.0752L62.1792 222.068H57.2472ZM45.4032 222.068L40.5072 203.348H46.5192L50.3352 222.068H45.4032ZM47.3832 222.068L51.5592 203.348H55.9512L51.4152 222.068H47.3832ZM56.1672 222.068L51.6312 203.348H56.0232L60.1992 222.068H56.1672ZM69.9582 222.068V203.348H75.9342V222.068H69.9582ZM80.5422 222.068V210.296H86.5182V222.068H80.5422ZM80.5422 210.332C80.5422 209.372 80.3502 208.628 79.9662 208.1C79.6062 207.572 79.0902 207.308 78.4182 207.308L80.2182 202.772C81.4182 202.772 82.4862 203.108 83.4222 203.78C84.3822 204.428 85.1382 205.328 85.6902 206.48C86.2422 207.608 86.5182 208.892 86.5182 210.332H80.5422ZM74.2782 210.692C74.2782 209.18 74.5302 207.824 75.0342 206.624C75.5622 205.424 76.2702 204.488 77.1582 203.816C78.0702 203.12 79.0902 202.772 80.2182 202.772L78.4182 207.308C77.6502 207.308 77.0382 207.608 76.5822 208.208C76.1502 208.808 75.9342 209.636 75.9342 210.692H74.2782ZM90.3222 222.068V195.572H96.2982V222.068H90.3222ZM110.298 214.004V211.412H116.274V214.004H110.298ZM99.7145 214.004V211.412H105.69V214.004H99.7145ZM107.778 207.344V202.808H108.21V207.344H107.778ZM107.778 222.608V218.072H108.21V222.608H107.778ZM99.7145 211.448C99.7145 209.792 100.062 208.316 100.758 207.02C101.478 205.724 102.45 204.704 103.674 203.96C104.898 203.192 106.278 202.808 107.814 202.808V207.344C107.142 207.344 106.614 207.704 106.23 208.424C105.87 209.144 105.69 210.152 105.69 211.448H99.7145ZM116.274 211.448H110.298C110.298 210.152 110.106 209.144 109.722 208.424C109.362 207.704 108.846 207.344 108.174 207.344V202.808C109.734 202.808 111.114 203.192 112.314 203.96C113.538 204.704 114.498 205.724 115.194 207.02C115.914 208.316 116.274 209.792 116.274 211.448ZM99.7145 213.968H105.69C105.69 215.264 105.87 216.272 106.23 216.992C106.614 217.712 107.142 218.072 107.814 218.072V222.608C106.278 222.608 104.898 222.236 103.674 221.492C102.45 220.724 101.478 219.692 100.758 218.396C100.062 217.076 99.7145 215.6 99.7145 213.968ZM116.274 213.968C116.274 215.6 115.914 217.076 115.194 218.396C114.498 219.692 113.538 220.724 112.314 221.492C111.114 222.236 109.734 222.608 108.174 222.608V218.072C108.846 218.072 109.362 217.712 109.722 216.992C110.106 216.272 110.298 215.264 110.298 213.968H116.274ZM129.424 222.068V210.296H135.4V222.068H129.424ZM125.284 222.608L126.364 218.288C126.94 218.288 127.456 218.144 127.912 217.856C128.368 217.544 128.728 217.112 128.992 216.56C129.28 215.984 129.424 215.312 129.424 214.544L131.8 214.184C131.8 215.792 131.5 217.232 130.9 218.504C130.3 219.776 129.508 220.784 128.524 221.528C127.54 222.248 126.46 222.608 125.284 222.608ZM125.284 222.608C124.06 222.608 122.98 222.356 122.044 221.852C121.132 221.348 120.424 220.664 119.92 219.8C119.416 218.912 119.164 217.916 119.164 216.812L124.42 216.452C124.42 216.98 124.6 217.424 124.96 217.784C125.344 218.12 125.812 218.288 126.364 218.288L125.284 222.608ZM119.164 216.812C119.164 215.684 119.476 214.688 120.1 213.824C120.748 212.936 121.612 212.24 122.692 211.736C123.772 211.208 124.996 210.944 126.364 210.944L127.084 214.544C126.244 214.544 125.584 214.712 125.104 215.048C124.648 215.384 124.42 215.852 124.42 216.452L119.164 216.812ZM127.084 214.544L126.364 210.944H130.504V214.544H127.084ZM129.424 214.544V210.656H131.8V214.184L129.424 214.544ZM135.4 210.692H129.424C129.424 209.636 129.22 208.808 128.812 208.208C128.404 207.608 127.84 207.308 127.12 207.308V202.772C128.704 202.772 130.12 203.12 131.368 203.816C132.616 204.488 133.6 205.424 134.32 206.624C135.04 207.824 135.4 209.18 135.4 210.692ZM124.852 210.152L119.632 209.216C119.872 207.848 120.316 206.684 120.964 205.724C121.636 204.764 122.5 204.032 123.556 203.528C124.612 203.024 125.812 202.772 127.156 202.772V207.308C126.556 207.308 126.052 207.56 125.644 208.064C125.236 208.544 124.972 209.24 124.852 210.152ZM155.201 203.42H149.225V196.148H155.201V203.42ZM149.225 222.068V203.348H155.201V222.068H149.225ZM138.641 215.084V210.332H144.617V215.084H138.641ZM144.617 210.332H138.641C138.641 208.892 138.917 207.608 139.469 206.48C140.021 205.328 140.765 204.428 141.701 203.78C142.661 203.108 143.741 202.772 144.941 202.772L146.741 207.308C146.069 207.308 145.541 207.572 145.157 208.1C144.797 208.628 144.617 209.372 144.617 210.332ZM150.881 210.692H149.225C149.225 209.636 148.997 208.808 148.541 208.208C148.109 207.608 147.509 207.308 146.741 207.308L144.941 202.772C146.069 202.772 147.077 203.12 147.965 203.816C148.877 204.488 149.585 205.424 150.089 206.624C150.617 207.824 150.881 209.18 150.881 210.692ZM144.617 215.084C144.617 216.044 144.797 216.788 145.157 217.316C145.541 217.844 146.069 218.108 146.741 218.108L144.941 222.644C143.741 222.644 142.661 222.32 141.701 221.672C140.765 221 140.021 220.1 139.469 218.972C138.917 217.82 138.641 216.524 138.641 215.084H144.617ZM150.881 214.724C150.881 216.236 150.617 217.592 150.089 218.792C149.585 219.968 148.877 220.904 147.965 221.6C147.077 222.296 146.069 222.644 144.941 222.644L146.741 218.108C147.509 218.108 148.109 217.808 148.541 217.208C148.997 216.608 149.225 215.78 149.225 214.724H150.881ZM167.095 222.068V203.348H173.071V222.068H167.095ZM176.959 222.068V210.296H182.935V222.068H176.959ZM171.415 210.692C171.415 209.18 171.643 207.824 172.099 206.624C172.579 205.424 173.227 204.488 174.043 203.816C174.859 203.12 175.783 202.772 176.815 202.772L175.015 207.308C174.415 207.308 173.935 207.608 173.575 208.208C173.239 208.808 173.071 209.636 173.071 210.692H171.415ZM176.959 210.296C176.959 209.36 176.791 208.628 176.455 208.1C176.119 207.572 175.639 207.308 175.015 207.308L176.815 202.772C177.991 202.772 179.035 203.108 179.947 203.78C180.859 204.428 181.579 205.316 182.107 206.444C182.659 207.572 182.935 208.856 182.935 210.296H176.959ZM186.823 222.068V210.296H192.799V222.068H186.823ZM181.279 210.692C181.279 209.18 181.507 207.824 181.963 206.624C182.443 205.424 183.091 204.488 183.907 203.816C184.723 203.12 185.647 202.772 186.679 202.772L184.879 207.308C184.279 207.308 183.799 207.608 183.439 208.208C183.103 208.808 182.935 209.636 182.935 210.692H181.279ZM186.823 210.296C186.823 209.36 186.655 208.628 186.319 208.1C185.983 207.572 185.503 207.308 184.879 207.308L186.679 202.772C187.855 202.772 188.899 203.108 189.811 203.78C190.723 204.428 191.443 205.316 191.971 206.444C192.523 207.572 192.799 208.856 192.799 210.296H186.823ZM197.203 228.548L198.571 223.94C199.579 224.204 200.359 224.252 200.911 224.084C201.487 223.94 201.871 223.556 202.063 222.932H207.031C206.239 225.548 205.039 227.312 203.431 228.224C201.847 229.136 199.771 229.244 197.203 228.548ZM202.099 222.932L206.887 203.348H212.899L207.031 222.932H202.099ZM202.099 225.308L195.511 203.348H201.523L204.835 216.884L202.099 225.308ZM96.2939 262.068L91.8299 250.152H97.5899L102.054 262.068H96.2939ZM91.2539 252.672V248.136H93.0539V252.672H91.2539ZM91.2539 240.684V236.148H93.0539V240.684H91.2539ZM95.5019 245.148V243.672H101.478V245.148H95.5019ZM101.478 243.708H95.5019C95.5019 242.748 95.2739 242.004 94.8179 241.476C94.3859 240.948 93.7859 240.684 93.0179 240.684V236.148C94.6259 236.148 96.0659 236.484 97.3379 237.156C98.6099 237.804 99.6179 238.704 100.362 239.856C101.106 240.984 101.478 242.268 101.478 243.708ZM101.478 245.112C101.478 246.552 101.106 247.848 100.362 249C99.6179 250.128 98.6099 251.028 97.3379 251.7C96.0659 252.348 94.6259 252.672 93.0179 252.672V248.136C93.7859 248.136 94.3859 247.872 94.8179 247.344C95.2739 246.816 95.5019 246.072 95.5019 245.112H101.478ZM85.6379 262.068V236.148H91.6139V262.068H85.6379ZM107.846 254.184V250.944H120.734V254.184H107.846ZM112.49 262.644V258.108H112.85V262.644H112.49ZM104.39 254.04V251.376H110.366V254.04H104.39ZM114.758 250.944V250.656H120.734V250.944H114.758ZM120.734 250.692H114.758C114.758 249.636 114.554 248.808 114.146 248.208C113.738 247.608 113.174 247.308 112.454 247.308V242.772C114.038 242.772 115.454 243.12 116.702 243.816C117.95 244.488 118.934 245.424 119.654 246.624C120.374 247.824 120.734 249.18 120.734 250.692ZM115.154 255.264L120.374 256.2C120.158 257.544 119.714 258.708 119.042 259.692C118.37 260.652 117.506 261.384 116.45 261.888C115.418 262.392 114.218 262.644 112.85 262.644V258.108C113.474 258.108 113.978 257.856 114.362 257.352C114.77 256.848 115.034 256.152 115.154 255.264ZM104.39 251.412C104.39 249.756 104.738 248.28 105.434 246.984C106.154 245.688 107.126 244.668 108.35 243.924C109.574 243.156 110.954 242.772 112.49 242.772V247.308C111.818 247.308 111.29 247.668 110.906 248.388C110.546 249.108 110.366 250.116 110.366 251.412H104.39ZM104.39 254.004H110.366C110.366 255.3 110.546 256.308 110.906 257.028C111.29 257.748 111.818 258.108 112.49 258.108V262.644C110.954 262.644 109.574 262.272 108.35 261.528C107.126 260.76 106.154 259.728 105.434 258.432C104.738 257.112 104.39 255.636 104.39 254.004ZM132.773 256.848C132.773 256.44 132.545 256.092 132.089 255.804C131.657 255.516 131.081 255.24 130.361 254.976C129.665 254.712 128.921 254.424 128.129 254.112C127.361 253.8 126.617 253.416 125.897 252.96C125.201 252.504 124.625 251.94 124.169 251.268C123.737 250.572 123.521 249.732 123.521 248.748C123.521 248.748 123.713 248.748 124.097 248.748C124.481 248.748 124.949 248.748 125.501 248.748C126.053 248.748 126.605 248.748 127.157 248.748C127.709 248.748 128.177 248.748 128.561 248.748C128.945 248.748 129.137 248.748 129.137 248.748C129.137 249.156 129.353 249.504 129.785 249.792C130.241 250.08 130.817 250.356 131.513 250.62C132.233 250.884 132.977 251.172 133.745 251.484C134.537 251.796 135.281 252.18 135.977 252.636C136.697 253.092 137.273 253.656 137.705 254.328C138.161 255 138.389 255.84 138.389 256.848C138.389 256.848 138.197 256.848 137.813 256.848C137.429 256.848 136.961 256.848 136.409 256.848C135.857 256.848 135.305 256.848 134.753 256.848C134.201 256.848 133.733 256.848 133.349 256.848C132.965 256.848 132.773 256.848 132.773 256.848ZM130.757 262.644V258.108C131.381 258.108 131.873 258 132.233 257.784C132.593 257.544 132.773 257.232 132.773 256.848H138.389C138.389 258.048 138.077 259.092 137.453 259.98C136.853 260.844 135.989 261.504 134.861 261.96C133.733 262.416 132.365 262.644 130.757 262.644ZM123.521 248.748C123.521 247.596 123.833 246.576 124.457 245.688C125.105 244.776 125.981 244.068 127.085 243.564C128.189 243.036 129.437 242.772 130.829 242.772V247.308C130.349 247.308 129.941 247.452 129.605 247.74C129.293 248.004 129.137 248.34 129.137 248.748H123.521ZM128.489 255.264C128.609 256.152 128.873 256.848 129.281 257.352C129.689 257.856 130.193 258.108 130.793 258.108V262.644C129.449 262.644 128.249 262.392 127.193 261.888C126.137 261.384 125.273 260.652 124.601 259.692C123.953 258.708 123.509 257.544 123.269 256.2L128.489 255.264ZM133.097 250.152C132.977 249.24 132.713 248.544 132.305 248.064C131.921 247.56 131.417 247.308 130.793 247.308V242.772C132.161 242.772 133.361 243.024 134.393 243.528C135.449 244.032 136.313 244.764 136.985 245.724C137.657 246.684 138.101 247.848 138.317 249.216L133.097 250.152ZM157.486 243.348V262.068H151.51V243.348H157.486ZM146.902 243.348V255.12H140.926V243.348H146.902ZM146.902 255.084C146.902 256.044 147.082 256.788 147.442 257.316C147.826 257.844 148.354 258.108 149.026 258.108L147.226 262.644C146.026 262.644 144.946 262.32 143.986 261.672C143.05 261 142.306 260.1 141.754 258.972C141.202 257.82 140.926 256.524 140.926 255.084H146.902ZM153.166 254.724C153.166 256.236 152.902 257.592 152.374 258.792C151.87 259.968 151.162 260.904 150.25 261.6C149.362 262.296 148.354 262.644 147.226 262.644L149.026 258.108C149.794 258.108 150.394 257.808 150.826 257.208C151.282 256.608 151.51 255.78 151.51 254.724H153.166ZM161.822 262.068V243.348H167.798V262.068H161.822ZM171.686 262.068V250.296H177.662V262.068H171.686ZM166.142 250.692C166.142 249.18 166.37 247.824 166.826 246.624C167.306 245.424 167.954 244.488 168.77 243.816C169.586 243.12 170.51 242.772 171.542 242.772L169.742 247.308C169.142 247.308 168.662 247.608 168.302 248.208C167.966 248.808 167.798 249.636 167.798 250.692H166.142ZM171.686 250.296C171.686 249.36 171.518 248.628 171.182 248.1C170.846 247.572 170.366 247.308 169.742 247.308L171.542 242.772C172.718 242.772 173.762 243.108 174.674 243.78C175.586 244.428 176.306 245.316 176.834 246.444C177.386 247.572 177.662 248.856 177.662 250.296H171.686ZM181.55 262.068V250.296H187.526V262.068H181.55ZM176.006 250.692C176.006 249.18 176.234 247.824 176.69 246.624C177.17 245.424 177.818 244.488 178.634 243.816C179.45 243.12 180.374 242.772 181.406 242.772L179.606 247.308C179.006 247.308 178.526 247.608 178.166 248.208C177.83 248.808 177.662 249.636 177.662 250.692H176.006ZM181.55 250.296C181.55 249.36 181.382 248.628 181.046 248.1C180.71 247.572 180.23 247.308 179.606 247.308L181.406 242.772C182.582 242.772 183.626 243.108 184.538 243.78C185.45 244.428 186.17 245.316 186.698 246.444C187.25 247.572 187.526 248.856 187.526 250.296H181.55ZM193.874 254.184V250.944H206.762V254.184H193.874ZM198.518 262.644V258.108H198.878V262.644H198.518ZM190.418 254.04V251.376H196.394V254.04H190.418ZM200.786 250.944V250.656H206.762V250.944H200.786ZM206.762 250.692H200.786C200.786 249.636 200.582 248.808 200.174 248.208C199.766 247.608 199.202 247.308 198.482 247.308V242.772C200.066 242.772 201.482 243.12 202.73 243.816C203.978 244.488 204.962 245.424 205.682 246.624C206.402 247.824 206.762 249.18 206.762 250.692ZM201.182 255.264L206.402 256.2C206.186 257.544 205.742 258.708 205.07 259.692C204.398 260.652 203.534 261.384 202.478 261.888C201.446 262.392 200.246 262.644 198.878 262.644V258.108C199.502 258.108 200.006 257.856 200.39 257.352C200.798 256.848 201.062 256.152 201.182 255.264ZM190.418 251.412C190.418 249.756 190.766 248.28 191.462 246.984C192.182 245.688 193.154 244.668 194.378 243.924C195.602 243.156 196.982 242.772 198.518 242.772V247.308C197.846 247.308 197.318 247.668 196.934 248.388C196.574 249.108 196.394 250.116 196.394 251.412H190.418ZM190.418 254.004H196.394C196.394 255.3 196.574 256.308 196.934 257.028C197.318 257.748 197.846 258.108 198.518 258.108V262.644C196.982 262.644 195.602 262.272 194.378 261.528C193.154 260.76 192.182 259.728 191.462 258.432C190.766 257.112 190.418 255.636 190.418 254.004Z" fill="#333533"/>
<path d="M304.998 47.6848C304.358 47.6848 304.031 48.4515 304.474 48.9131L326.004 71.3799C326.29 71.6782 326.767 71.6782 327.053 71.3799L348.583 48.9131C349.026 48.4515 348.699 47.6848 348.059 47.6848H342.406C342.005 47.6848 341.68 47.3598 341.68 46.9588V26.1889C341.68 25.7879 341.355 25.4629 340.954 25.4629L312.103 25.4629C311.702 25.4629 311.377 25.7879 311.377 26.1889V46.9588C311.377 47.3598 311.052 47.6848 310.651 47.6848H304.998Z" fill="#333533"/>
</svg>
