<svg width="73" height="71" viewBox="0 0 73 71" fill="none" xmlns="http://www.w3.org/2000/svg">
<path fill-rule="evenodd" clip-rule="evenodd" d="M36.9678 0.100098C17.0442 0.100098 0.937988 16.3251 0.937988 36.3976C0.937988 52.4426 11.2578 66.0244 25.5742 70.8314C27.3641 71.1928 28.0197 70.0504 28.0197 69.0895C28.0197 68.248 27.9607 65.3636 27.9607 62.3583C17.9381 64.5221 15.851 58.0314 15.851 58.0314C14.2403 53.8247 11.8537 52.7435 11.8537 52.7435C8.57332 50.52 12.0927 50.52 12.0927 50.52C15.7315 50.7604 17.6409 54.2458 17.6409 54.2458C20.8615 59.7741 26.0513 58.2121 28.1392 57.2504C28.4371 54.9066 29.3922 53.2841 30.4062 52.3829C22.4125 51.5414 14.0021 48.4166 14.0021 34.4742C14.0021 30.5079 15.4328 27.2629 17.6999 24.7392C17.3422 23.838 16.0892 20.1114 18.0583 15.1237C18.0583 15.1237 21.1005 14.162 27.96 18.8495C30.8967 18.055 33.9254 17.6508 36.9678 17.6474C40.01 17.6474 43.1111 18.0685 45.9749 18.8495C52.8351 14.162 55.8773 15.1237 55.8773 15.1237C57.8464 20.1114 56.5926 23.838 56.2349 24.7392C58.5617 27.2629 59.9335 30.5079 59.9335 34.4742C59.9335 48.4166 51.5231 51.4809 43.4696 52.3829C44.7823 53.5245 45.9151 55.6876 45.9151 59.1133C45.9151 63.9808 45.8561 67.8873 45.8561 69.0887C45.8561 70.0504 46.5125 71.1928 48.3017 70.8322C62.618 66.0237 72.9378 52.4426 72.9378 36.3976C72.9968 16.3251 56.8316 0.100098 36.9678 0.100098Z" fill="#F5F5F5"/>
</svg>
