<svg width="128" height="128" viewBox="0 0 128 128" fill="none" xmlns="http://www.w3.org/2000/svg">
<g clip-path="url(#clip0_206_102)">
<path d="M97.78 0.300049H30.46C14.0572 0.300049 0.76001 13.5972 0.76001 30V97.32C0.76001 113.723 14.0572 127.02 30.46 127.02H97.78C114.183 127.02 127.48 113.723 127.48 97.32V30C127.48 13.5972 114.183 0.300049 97.78 0.300049Z" fill="#E14E1D"/>
<path d="M24.5198 19.1099L28.7816 66.9234H83.5832L81.7442 87.4312L64.0995 92.2021L46.4879 87.4382L45.3104 74.2702H29.4395L31.709 99.6543L64.0955 108.649L96.523 99.6543L100.871 51.1141H43.2427L41.7958 34.9225H102.255H102.304L103.72 19.1099H24.5198Z" fill="#F5F5F5"/>
<path d="M64.1198 19.1099H24.5198L28.7816 66.9234H64.1198V51.1141H43.2427L41.7958 34.9225H64.1198V19.1099Z" fill="#EBEBEB"/>
<path d="M64.1198 92.1952L64.0995 92.2021L46.4878 87.4383L45.3103 74.2703H29.4395L31.7089 99.6544L64.0955 108.649L64.1198 108.643V92.1952Z" fill="#EBEBEB"/>
</g>
<defs>
<clipPath id="clip0_206_102">
<rect width="126.72" height="126.72" fill="white" transform="translate(0.759766 0.300049)"/>
</clipPath>
</defs>
</svg>
