<svg width="66" height="65" viewBox="0 0 66 65" fill="none" xmlns="http://www.w3.org/2000/svg">
<path fill-rule="evenodd" clip-rule="evenodd" d="M33.338 15.8635C24.1496 15.8635 16.695 23.318 16.695 32.5064C16.695 41.6949 24.1496 49.1494 33.338 49.1494C42.5264 49.1494 49.981 41.6949 49.981 32.5064C49.981 23.318 42.5264 15.8635 33.338 15.8635ZM33.338 43.3022C27.3769 43.3022 22.5422 38.4675 22.5422 32.5064C22.5422 26.5454 27.3769 21.7107 33.338 21.7107C39.2991 21.7107 44.1338 26.5454 44.1338 32.5064C44.1338 38.4675 39.2991 43.3022 33.338 43.3022Z" fill="#F5F5F5"/>
<path d="M50.6391 19.0907C52.778 19.0907 54.5246 17.3568 54.5246 15.2052C54.5246 13.0663 52.778 11.3198 50.6391 11.3198C48.5002 11.3198 46.7536 13.0537 46.7536 15.2052C46.7536 17.3441 48.4875 19.0907 50.6391 19.0907Z" fill="#F5F5F5"/>
<path fill-rule="evenodd" clip-rule="evenodd" d="M33.338 0.106445C24.5419 0.106445 23.4408 0.144414 19.9856 0.296289C16.5431 0.448164 14.1764 1.00504 12.1261 1.80238C9.98721 2.6377 8.17736 3.73879 6.38018 5.54863C4.57033 7.34582 3.46924 9.15567 2.63393 11.2819C1.83658 13.3449 1.27971 15.6989 1.12783 19.1414C0.975957 22.6093 0.937988 23.7104 0.937988 32.5064C0.937988 41.3025 0.975957 42.4036 1.12783 45.8588C1.27971 49.3013 1.83658 51.668 2.63393 53.7183C3.46924 55.8572 4.57033 57.6671 6.38018 59.4643C8.17736 61.2615 9.98721 62.3752 12.1135 63.1979C14.1764 63.9952 16.5305 64.5521 19.973 64.7039C23.4281 64.8558 24.5292 64.8938 33.3253 64.8938C42.1214 64.8938 43.2225 64.8558 46.6777 64.7039C50.1202 64.5521 52.4869 63.9952 54.5372 63.1979C56.6635 62.3752 58.4733 61.2615 60.2705 59.4643C62.0677 57.6671 63.1814 55.8572 64.0041 53.731C64.8014 51.668 65.3583 49.314 65.5102 45.8715C65.6621 42.4163 65.7 41.3152 65.7 32.5191C65.7 23.723 65.6621 22.6219 65.5102 19.1668C65.3583 15.7243 64.8014 13.3575 64.0041 11.3072C63.2067 9.15567 62.1057 7.34582 60.2958 5.54863C58.4986 3.75145 56.6888 2.6377 54.5625 1.81504C52.4996 1.0177 50.1455 0.46082 46.703 0.308945C43.2352 0.144414 42.1341 0.106445 33.338 0.106445ZM33.338 5.94098C41.9949 5.94098 43.02 5.97895 46.4246 6.13082C49.5886 6.27004 51.2972 6.8016 52.4363 7.24457C53.9424 7.82676 55.0308 8.53551 56.1572 9.66191C57.2963 10.801 57.9924 11.8768 58.5746 13.3829C59.0175 14.5219 59.5491 16.2432 59.6883 19.3946C59.8402 22.8118 59.8782 23.8369 59.8782 32.4811C59.8782 41.138 59.8402 42.1632 59.6883 45.5677C59.5491 48.7318 59.0175 50.4404 58.5746 51.5794C57.9924 53.0855 57.2836 54.174 56.1572 55.3004C55.0181 56.4394 53.9424 57.1355 52.4363 57.7177C51.2972 58.1607 49.576 58.6922 46.4246 58.8315C43.0074 58.9833 41.9822 59.0213 33.338 59.0213C24.6811 59.0213 23.656 58.9833 20.2514 58.8315C17.0874 58.6922 15.3788 58.1607 14.2397 57.7177C12.7336 57.1355 11.6452 56.4268 10.5188 55.3004C9.37971 54.1613 8.68361 53.0855 8.10143 51.5794C7.65846 50.4404 7.12689 48.7191 6.98768 45.5677C6.8358 42.1505 6.79783 41.1254 6.79783 32.4811C6.79783 23.8243 6.8358 22.7991 6.98768 19.3946C7.12689 16.2305 7.65846 14.5219 8.10143 13.3829C8.68361 11.8768 9.39236 10.7883 10.5188 9.66191C11.6578 8.52285 12.7336 7.82676 14.2397 7.24457C15.3788 6.8016 17.1 6.27004 20.2514 6.13082C23.656 5.97895 24.6811 5.94098 33.338 5.94098Z" fill="#F5F5F5"/>
</svg>
