<svg width="66" height="65" viewBox="0 0 66 65" fill="none" xmlns="http://www.w3.org/2000/svg">
<path d="M60.7032 0.100098H5.48401C2.83886 0.100098 0.699951 2.18838 0.699951 4.77025V60.2173C0.699951 62.7992 2.83886 64.9001 5.48401 64.9001H60.7032C63.3484 64.9001 65.5 62.7992 65.5 60.2299V4.77025C65.5 2.18838 63.3484 0.100098 60.7032 0.100098ZM19.9248 55.3193H10.306V24.3874H19.9248V55.3193ZM15.1154 20.1729C12.0273 20.1729 9.53401 17.6796 9.53401 14.6042C9.53401 11.5287 12.0273 9.03541 15.1154 9.03541C18.1909 9.03541 20.6842 11.5287 20.6842 14.6042C20.6842 17.667 18.1909 20.1729 15.1154 20.1729ZM55.9192 55.3193H46.3131V40.2837C46.3131 36.702 46.2498 32.0824 41.3139 32.0824C36.3146 32.0824 35.5553 35.9932 35.5553 40.0306V55.3193H25.9618V24.3874H35.1756V28.6146H35.3021C36.5804 26.1846 39.7192 23.6154 44.3893 23.6154C54.122 23.6154 55.9192 30.0195 55.9192 38.3473V55.3193Z" fill="#F5F5F5"/>
</svg>
