<svg width="128" height="128" viewBox="0 0 128 128" fill="none" xmlns="http://www.w3.org/2000/svg">
<g clip-path="url(#clip0_290_478)">
<path d="M97.7351 0.699951H30.4151C14.0122 0.699951 0.715088 13.9971 0.715088 30.4V97.7199C0.715088 114.123 14.0122 127.42 30.4151 127.42H97.7351C114.138 127.42 127.435 114.123 127.435 97.7199V30.4C127.435 13.9971 114.138 0.699951 97.7351 0.699951Z" fill="#242938"/>
<mask id="mask0_290_478" style="mask-type:luminance" maskUnits="userSpaceOnUse" x="19" y="19" width="90" height="90">
<path d="M108.625 19.5098H19.525V108.61H108.625V19.5098Z" fill="white"/>
</mask>
<g mask="url(#mask0_290_478)">
<path fill-rule="evenodd" clip-rule="evenodd" d="M101.596 88.9139C96.7504 88.7793 92.9909 89.2757 89.8402 90.6013C88.9328 90.9657 87.4771 90.9657 87.3573 92.1076C87.8424 92.5868 87.9008 93.3709 88.326 94.0352C89.0521 95.2405 90.3263 96.8641 91.4767 97.7066L95.3545 100.478C97.7176 101.922 100.384 102.765 102.686 104.211C104.019 105.054 105.352 106.138 106.686 107.043C107.365 107.524 107.776 108.309 108.625 108.608V108.426C108.201 107.886 108.079 107.104 107.657 106.499L105.837 104.753C104.081 102.405 101.898 100.356 99.5348 98.6713C97.5954 97.3462 93.3552 95.54 92.5671 93.313L92.4478 93.1778C93.7789 93.0432 95.3545 92.5744 96.6281 92.2131C98.6898 91.673 100.567 91.7918 102.686 91.2503L105.597 90.4068V89.8668C104.506 88.7832 103.718 87.3373 102.568 86.3146C99.4778 83.6649 96.0821 81.0746 92.5671 78.907C90.6891 77.7031 88.2646 76.9186 86.2653 75.8969C85.5362 75.535 84.3259 75.3544 83.9022 74.7524C82.8087 73.4298 82.2043 71.6814 81.4168 70.1148L76.4485 59.6366C75.358 57.2878 74.6897 54.9391 73.3587 52.7715C67.1162 42.5336 60.3283 36.3314 49.9056 30.2481C47.6646 28.9833 44.9984 28.4394 42.1639 27.778L37.6195 27.5351C36.6484 27.1139 35.68 25.9693 34.8311 25.4267C31.3773 23.259 22.469 18.5619 19.9224 24.7518C18.2858 28.6661 22.3467 32.5197 23.7253 34.5079C24.7575 35.8928 26.0885 37.4585 26.8179 39.0242C27.2253 40.0473 27.3611 41.1325 27.7862 42.2164C28.7546 44.866 29.6646 47.8179 30.9372 50.288C31.6163 51.5528 32.3294 52.8794 33.1782 54.0228C33.6631 54.6975 34.512 54.9866 34.6926 56.0701C33.8437 57.2755 33.7853 59.0802 33.3004 60.588C31.1178 67.3933 31.9667 75.8241 35.0566 80.8345C36.0277 82.3393 38.3162 85.6528 41.421 84.3871C44.1482 83.3031 43.5398 79.8707 44.3275 76.8592C44.5109 76.1374 44.3886 75.6553 44.7513 75.1722V75.3073L47.2367 80.3053C49.1151 83.256 52.3885 86.328 55.114 88.3768C56.5673 89.4609 57.7191 91.329 59.5363 91.9903V91.8082H59.417C59.0527 91.2681 58.5067 91.0251 58.0221 90.6038C56.9316 89.5203 55.7198 88.1947 54.8709 86.9908C52.3271 83.6189 50.0862 79.8841 48.0856 76.0305C47.1145 74.1639 46.2656 72.1161 45.4806 70.2494C45.1139 69.5262 45.1139 68.4407 44.5095 68.0818C43.5995 69.4045 42.2685 70.5519 41.5989 72.1769C40.4472 74.7658 40.3277 77.9581 39.9039 81.2706C39.6595 81.331 39.7681 81.2706 39.6595 81.4052C37.7227 80.9251 37.0545 78.9352 36.3279 77.2507C34.5106 72.9749 34.2063 66.1097 35.7818 61.1711C36.2056 59.9064 38.0256 55.9315 37.299 54.7272C36.9322 53.5828 35.7234 52.9214 35.0552 52.0171C34.2675 50.8726 33.4213 49.4282 32.8753 48.1635C31.4221 44.789 30.6955 41.0569 29.1186 37.6839C28.3893 36.1182 27.118 34.4917 26.0872 33.0475C24.9354 31.421 23.6655 30.2764 22.7556 28.3503C22.4527 27.6754 22.0289 26.6037 22.5138 25.8802C22.6333 25.3984 22.8778 25.2054 23.36 25.0974C24.1477 24.4225 26.3914 25.2783 27.1791 25.6373C29.4201 26.5416 31.2985 27.3839 33.1768 28.6472C34.0257 29.2493 34.9357 30.3938 36.0263 30.6962H37.3003C39.2398 31.1173 41.4196 30.8312 43.2355 31.3711C46.4476 32.3969 49.3555 33.9005 51.9633 35.5283C59.9006 40.5265 66.447 47.633 70.8688 56.1256C71.5955 57.5106 71.8984 58.7753 72.5667 60.2207C73.8408 63.1729 75.4164 66.183 76.6861 69.0753C77.9602 71.9057 79.1715 74.7985 80.9891 77.1468C81.8989 78.4115 85.5332 79.0728 87.1687 79.7356C88.3814 80.2756 90.2585 80.7617 91.3519 81.4231C93.4106 82.6878 95.4713 84.1332 97.4092 85.5182C98.3774 86.2389 101.409 87.7452 101.59 88.9466L101.596 88.9139ZM39.7993 36.5812C38.9621 36.5738 38.1275 36.675 37.3166 36.8822V37.0171H37.4361C37.921 37.9809 38.7699 38.6436 39.3756 39.4872L40.7704 42.3784L40.8899 42.2434C41.7388 41.6414 42.1639 40.6777 42.1639 39.2334C41.7999 38.8123 41.7402 38.3898 41.4373 37.9687C41.0733 37.3667 40.2856 37.0644 39.7993 36.5839V36.5812Z" fill="#F5F5F5"/>
</g>
</g>
<defs>
<clipPath id="clip0_290_478">
<rect width="126.72" height="126.72" fill="white" transform="translate(0.715088 0.699951)"/>
</clipPath>
</defs>
</svg>
