<svg width="46" height="58" viewBox="0 0 46 58" fill="none" xmlns="http://www.w3.org/2000/svg">
<path fill-rule="evenodd" clip-rule="evenodd" d="M45.08 18.1328C45.08 17.8941 44.9852 17.6652 44.8164 17.4964L27.5836 0.263604C27.4148 0.0948211 27.1859 0 26.9472 0H1.81998C1.32293 0 0.919983 0.402947 0.919983 0.900003V56.7C0.919983 57.1971 1.32293 57.6 1.81998 57.6H44.18C44.677 57.6 45.08 57.1971 45.08 56.7V18.1328ZM27.32 1.56C27.5188 1.56 27.68 1.72118 27.68 1.92V17.4H42.68C42.8788 17.4 43.04 17.5612 43.04 17.76C43.04 17.9588 42.8788 18.12 42.68 18.12H26.96V1.92C26.96 1.72118 27.1212 1.56 27.32 1.56ZM4.51998 8.64C4.51998 7.97726 5.05724 7.44 5.71998 7.44H25.16V9.84H5.71998C5.05724 9.84 4.51998 9.30274 4.51998 8.64ZM5.71998 22.8C5.05724 22.8 4.51998 23.3373 4.51998 24C4.51998 24.6627 5.05724 25.2 5.71998 25.2H40.28C40.9427 25.2 41.48 24.6627 41.48 24C41.48 23.3373 40.9427 22.8 40.28 22.8H5.71998ZM4.51998 31.68C4.51998 31.0173 5.05724 30.48 5.71998 30.48H40.28C40.9427 30.48 41.48 31.0173 41.48 31.68C41.48 32.3427 40.9427 32.88 40.28 32.88H5.71998C5.05724 32.88 4.51998 32.3427 4.51998 31.68ZM5.71998 38.16C5.05724 38.16 4.51998 38.6973 4.51998 39.36C4.51998 40.0227 5.05724 40.56 5.71998 40.56H40.28C40.9427 40.56 41.48 40.0227 41.48 39.36C41.48 38.6973 40.9427 38.16 40.28 38.16H5.71998ZM4.51998 47.04C4.51998 46.3773 5.05724 45.84 5.71998 45.84H40.28C40.9427 45.84 41.48 46.3773 41.48 47.04C41.48 47.7027 40.9427 48.24 40.28 48.24H5.71998C5.05724 48.24 4.51998 47.7027 4.51998 47.04ZM5.71998 15.12C5.05724 15.12 4.51998 15.6573 4.51998 16.32C4.51998 16.9827 5.05724 17.52 5.71998 17.52H25.16V15.12H5.71998Z" fill="#F5CB5C"/>
</svg>
