<svg width="127" height="128" viewBox="0 0 127 128" fill="none" xmlns="http://www.w3.org/2000/svg">
<g clip-path="url(#clip0_290_467)">
<path d="M97.015 0.699951H29.695C13.2921 0.699951 -0.00500488 13.9971 -0.00500488 30.4V97.7199C-0.00500488 114.123 13.2921 127.42 29.695 127.42H97.015C113.418 127.42 126.715 114.123 126.715 97.7199V30.4C126.715 13.9971 113.418 0.699951 97.015 0.699951Z" fill="#242938"/>
<path d="M63.3554 73.4406C68.4559 73.4406 72.5902 69.3059 72.5902 64.2059C72.5902 59.1059 68.4559 54.9712 63.3554 54.9712C58.2555 54.9712 54.1207 59.1059 54.1207 64.2059C54.1207 69.3059 58.2555 73.4406 63.3554 73.4406Z" fill="#00D8FF"/>
<path fill-rule="evenodd" clip-rule="evenodd" d="M63.356 45.4297C75.7547 45.4297 87.2729 47.2088 95.9577 50.1987C106.421 53.801 112.855 59.2613 112.855 64.2059C112.855 69.3583 106.037 75.1592 94.7999 78.8821C86.3047 81.6967 75.1256 83.1659 63.356 83.1659C51.2889 83.1659 39.8617 81.7868 31.2708 78.8509C20.4016 75.136 13.855 69.2603 13.855 64.2059C13.855 59.3014 19.9977 53.8832 30.3145 50.2865C39.0315 47.2473 50.834 45.4297 63.354 45.4297H63.356Z" stroke="#00D8FF" stroke-width="4.41095"/>
<path fill-rule="evenodd" clip-rule="evenodd" d="M47.0107 54.8718C53.2051 44.1314 60.4999 35.0423 67.4289 29.0126C75.7766 21.7477 83.7213 18.9025 88.0041 21.3723C92.4675 23.9463 94.0866 32.7511 91.6983 44.3447C89.894 53.1101 85.5805 63.5279 79.7004 73.7239C73.6718 84.1773 66.7691 93.3873 59.9346 99.3609C51.2865 106.921 42.9256 109.656 38.5473 107.131C34.2987 104.683 32.674 96.6538 34.7122 85.9197C36.4342 76.8498 40.7559 65.7178 47.0087 54.8718H47.0107Z" stroke="#00D8FF" stroke-width="4.41095"/>
<path fill-rule="evenodd" clip-rule="evenodd" d="M47.0261 73.751C40.8143 63.0224 36.5851 52.1611 34.8198 43.147C32.6948 32.2863 34.1972 23.9825 38.4763 21.5055C42.9355 18.924 51.372 21.9186 60.2236 29.778C66.916 35.7201 73.7881 44.6585 79.685 54.8445C85.731 65.288 90.2622 75.8686 92.0249 84.7727C94.2554 96.0408 92.4501 104.65 88.0758 107.182C83.8317 109.639 76.0646 107.038 67.7828 99.9112C60.7855 93.8901 53.2991 84.5865 47.0261 73.751Z" stroke="#00D8FF" stroke-width="4.41095"/>
</g>
<defs>
<clipPath id="clip0_290_467">
<rect width="126.72" height="126.72" fill="white" transform="translate(-0.00500488 0.699951)"/>
</clipPath>
</defs>
</svg>
