<svg width="127" height="128" viewBox="0 0 127 128" fill="none" xmlns="http://www.w3.org/2000/svg">
<g clip-path="url(#clip0_290_459)">
<path d="M97.295 0.699951H29.975C13.5722 0.699951 0.275024 13.9971 0.275024 30.4V97.7199C0.275024 114.123 13.5722 127.42 29.975 127.42H97.295C113.698 127.42 126.995 114.123 126.995 97.7199V30.4C126.995 13.9971 113.698 0.699951 97.295 0.699951Z" fill="#F0DB4F"/>
<path d="M33.5943 106.596L43.2918 100.727C45.1626 104.044 46.8645 106.851 50.9466 106.851C54.8596 106.851 57.3267 105.321 57.3267 99.3667V58.8767H69.2354V99.535C69.2354 111.869 62.0054 117.483 51.457 117.483C41.9308 117.483 36.401 112.55 33.5941 106.595" fill="#323330"/>
<path d="M75.7036 105.32L85.3996 99.7065C87.9523 103.875 91.2698 106.937 97.1385 106.937C102.073 106.937 105.219 104.47 105.219 101.067C105.219 96.9845 101.987 95.5381 96.5431 93.1572L93.5666 91.8806C84.9749 88.2235 79.2755 83.6299 79.2755 73.9328C79.2755 65.0011 86.0807 58.1958 96.7138 58.1958C104.284 58.1958 109.728 60.8332 113.641 67.7231L104.369 73.6774C102.327 70.0199 100.116 68.574 96.7138 68.574C93.2261 68.574 91.0144 70.7856 91.0144 73.6774C91.0144 77.2498 93.2261 78.6962 98.3295 80.9084L101.306 82.184C111.429 86.5227 117.128 90.945 117.128 100.897C117.128 111.616 108.707 117.484 97.394 117.484C86.3362 117.484 79.1908 112.211 75.7036 105.32Z" fill="#323330"/>
</g>
<defs>
<clipPath id="clip0_290_459">
<rect width="126.72" height="126.72" fill="white" transform="translate(0.275024 0.699951)"/>
</clipPath>
</defs>
</svg>
