<svg width="128" height="128" viewBox="0 0 128 128" fill="none" xmlns="http://www.w3.org/2000/svg">
<g clip-path="url(#clip0_189_59)">
<path d="M30.5198 4.76003H97.8398C112.056 4.76003 123.58 16.2842 123.58 30.5V97.82C123.58 112.036 112.056 123.56 97.8398 123.56H30.5198C16.304 123.56 4.77982 112.036 4.77982 97.82V30.5C4.77982 16.2842 16.304 4.76003 30.5198 4.76003Z" fill="#E14E1D" stroke="#085641" stroke-width="7.92"/>
<path d="M24.5798 19.61L28.8417 67.4235H83.6432L81.8043 87.9313L64.1595 92.7021L46.5479 87.9383L45.3704 74.7703H29.4996L31.769 100.154L64.1556 109.15L96.583 100.154L100.931 51.6142H43.3028L41.8558 35.4226H102.315H102.364L103.78 19.61H24.5798Z" fill="#F5F5F5"/>
<path d="M64.1798 19.61H24.5798L28.8417 67.4235H64.1798V51.6142H43.3028L41.8558 35.4226H64.1798V19.61Z" fill="#EBEBEB"/>
<path d="M64.1798 92.6952L64.1595 92.7022L46.5479 87.9383L45.3704 74.7703H29.4995L31.769 100.154L64.1555 109.15L64.1798 109.143V92.6952Z" fill="#EBEBEB"/>
</g>
<defs>
<clipPath id="clip0_189_59">
<rect width="126.72" height="126.72" fill="white" transform="translate(0.819824 0.800034)"/>
</clipPath>
</defs>
</svg>
