<svg width="127" height="128" viewBox="0 0 127 128" fill="none" xmlns="http://www.w3.org/2000/svg">
<g clip-path="url(#clip0_189_301)">
<path d="M29.69 4.33012H97.01C111.226 4.33012 122.75 15.8543 122.75 30.0701V97.3901C122.75 111.606 111.226 123.13 97.01 123.13H29.69C15.4742 123.13 3.94999 111.606 3.94999 97.3901V30.0701C3.94999 15.8543 15.4742 4.33012 29.69 4.33012Z" fill="#F0DB4F" stroke="#085641" stroke-width="7.92"/>
<path d="M33.309 106.267L43.0066 100.398C44.8774 103.715 46.5792 106.522 50.6614 106.522C54.5744 106.522 57.0415 104.991 57.0415 99.0374V58.5474H68.9502V99.2057C68.9502 111.54 61.7202 117.154 51.1718 117.154C41.6456 117.154 36.1158 112.22 33.3088 106.266" fill="#323330"/>
<path d="M75.4185 104.99L85.1145 99.3767C87.6672 103.545 90.9847 106.607 96.8534 106.607C101.788 106.607 104.934 104.14 104.934 100.737C104.934 96.6547 101.702 95.2083 96.258 92.8273L93.2815 91.5507C84.6898 87.8937 78.9904 83.3001 78.9904 73.603C78.9904 64.6712 85.7956 57.866 96.4287 57.866C103.999 57.866 109.443 60.5033 113.356 67.3932L104.084 73.3476C102.042 69.69 99.8314 68.2441 96.4287 68.2441C92.941 68.2441 90.7293 70.4558 90.7293 73.3476C90.7293 76.92 92.941 78.3664 98.0444 80.5785L101.021 81.8542C111.144 86.1928 116.843 90.6152 116.843 100.567C116.843 111.286 108.422 117.155 97.1089 117.155C86.0511 117.155 78.9057 111.881 75.4185 104.99Z" fill="#323330"/>
</g>
<defs>
<clipPath id="clip0_189_301">
<rect width="126.72" height="126.72" fill="white" transform="translate(-0.0100098 0.370117)"/>
</clipPath>
</defs>
</svg>
