<svg width="127" height="128" viewBox="0 0 127 128" fill="none" xmlns="http://www.w3.org/2000/svg">
<g clip-path="url(#clip0_206_124)">
<path d="M29.9 4.26005H97.2199C111.436 4.26005 122.96 15.7842 122.96 30V97.32C122.96 111.536 111.436 123.06 97.2199 123.06H29.9C15.6841 123.06 4.15995 111.536 4.15995 97.32V30C4.15995 15.7842 15.6841 4.26005 29.9 4.26005Z" fill="#007ACC" stroke="#085641" stroke-width="7.92"/>
<path d="M28.2226 64.0801L28.1824 69.2696H36.4292H44.6761V92.703V116.136H50.5094H56.3425V92.703V69.2696H64.5892H72.8359V64.1806C72.8359 61.3645 72.776 59.0113 72.6953 58.9509C72.6349 58.8707 62.5978 58.8301 50.4287 58.8504L28.283 58.9108L28.2226 64.0801Z" fill="#F5F5F5"/>
<path d="M102.451 58.7635C105.669 59.5683 108.123 60.9964 110.376 63.3293C111.542 64.5767 113.272 66.8498 113.413 67.3928C113.453 67.5537 107.942 71.2548 104.603 73.3264C104.482 73.4071 103.999 72.8838 103.456 72.0795C101.827 69.7059 100.117 68.6798 97.5021 68.4991C93.6604 68.2373 91.1864 70.249 91.2067 73.608C91.2067 74.5936 91.3473 75.1767 91.7497 75.9815C92.5942 77.7314 94.1634 78.7773 99.0916 80.9093C108.163 84.8119 112.045 87.3863 114.459 91.0469C117.154 95.1301 117.758 101.647 115.927 106.495C113.916 111.765 108.927 115.345 101.907 116.532C99.7351 116.914 94.5856 116.854 92.2527 116.431C87.1636 115.526 82.3363 113.012 79.3594 109.713C78.1927 108.426 75.9196 105.067 76.0607 104.825C76.1206 104.745 76.6438 104.423 77.2269 104.081C77.7902 103.759 79.9227 102.532 81.9339 101.366L85.5746 99.2535L86.3389 100.38C87.4051 102.009 89.7381 104.242 91.1463 104.986C95.189 107.119 100.741 106.817 103.476 104.363C104.643 103.297 105.126 102.19 105.126 100.561C105.126 99.0926 104.944 98.4491 104.18 97.3428C103.195 95.935 101.183 94.748 95.4707 92.274C88.9337 89.4579 86.1176 87.7081 83.5431 84.9321C82.0547 83.3234 80.6464 80.7484 80.0633 78.5961C79.5807 76.8062 79.4599 72.3205 79.842 70.5103C81.1894 64.1946 85.9568 59.7896 92.8358 58.4818C95.0687 58.0596 100.258 58.2205 102.451 58.7635Z" fill="#F5F5F5"/>
</g>
<defs>
<clipPath id="clip0_206_124">
<rect width="126.72" height="126.72" fill="white" transform="translate(0.199951 0.300049)"/>
</clipPath>
</defs>
</svg>
