<svg width="128" height="128" viewBox="0 0 128 128" fill="none" xmlns="http://www.w3.org/2000/svg">
<g clip-path="url(#clip0_206_211)">
<path d="M30.0999 4.76003H97.4199C111.636 4.76003 123.16 16.2842 123.16 30.5V97.82C123.16 112.036 111.636 123.56 97.4199 123.56H30.0999C15.8841 123.56 4.3599 112.036 4.3599 97.82V30.5C4.3599 16.2842 15.8841 4.76003 30.0999 4.76003Z" fill="#242938" stroke="#085641" stroke-width="7.92"/>
<path d="M63.7606 73.5407C68.8611 73.5407 72.9953 69.406 72.9953 64.306C72.9953 59.206 68.8611 55.0713 63.7606 55.0713C58.6606 55.0713 54.5259 59.206 54.5259 64.306C54.5259 69.406 58.6606 73.5407 63.7606 73.5407Z" fill="#00D8FF"/>
<path fill-rule="evenodd" clip-rule="evenodd" d="M63.7608 45.5298C76.1595 45.5298 87.6777 47.3089 96.3624 50.2988C106.826 53.9011 113.26 59.3614 113.26 64.306C113.26 69.4584 106.442 75.2593 95.2046 78.9822C86.7094 81.7968 75.5304 83.266 63.7608 83.266C51.6936 83.266 40.2665 81.8869 31.6755 78.951C20.8064 75.2361 14.2598 69.3604 14.2598 64.306C14.2598 59.4015 20.4025 53.9832 30.7193 50.3866C39.4363 47.3474 51.2387 45.5298 63.7588 45.5298H63.7608Z" stroke="#00D8FF" stroke-width="4.41095"/>
<path fill-rule="evenodd" clip-rule="evenodd" d="M47.4156 54.9718C53.61 44.2314 60.9048 35.1422 67.8338 29.1125C76.1815 21.8477 84.1262 19.0025 88.409 21.4723C92.8724 24.0463 94.4915 32.851 92.1032 44.4447C90.2989 53.2101 85.9855 63.6279 80.1054 73.8239C74.0767 84.2773 67.174 93.4873 60.3395 99.4609C51.6914 107.021 43.3305 109.756 38.9522 107.231C34.7036 104.783 33.0789 96.7538 35.1171 86.0197C36.8391 76.9498 41.1608 65.8177 47.4136 54.9718H47.4156Z" stroke="#00D8FF" stroke-width="4.41095"/>
<path fill-rule="evenodd" clip-rule="evenodd" d="M47.4311 73.8511C41.2193 63.1224 36.9901 52.2611 35.2248 43.247C33.0998 32.3863 34.6022 24.0825 38.8813 21.6055C43.3405 19.024 51.777 22.0186 60.6286 29.8781C67.321 35.8202 74.1931 44.7585 80.09 54.9445C86.1359 65.388 90.6672 75.9687 92.4299 84.8727C94.6603 96.1409 92.8551 104.75 88.4808 107.282C84.2366 109.74 76.4696 107.138 68.1877 100.011C61.1904 93.9901 53.704 84.6866 47.4311 73.8511Z" stroke="#00D8FF" stroke-width="4.41095"/>
</g>
<defs>
<clipPath id="clip0_206_211">
<rect width="126.72" height="126.72" fill="white" transform="translate(0.399902 0.800034)"/>
</clipPath>
</defs>
</svg>
