<svg width="128" height="127" viewBox="0 0 128 127" fill="none" xmlns="http://www.w3.org/2000/svg">
<g clip-path="url(#clip0_207_388)">
<path d="M30.6502 4.13004H97.9702C112.186 4.13004 123.71 15.6542 123.71 29.87V97.19C123.71 111.406 112.186 122.93 97.9702 122.93H30.6502C16.4344 122.93 4.9102 111.406 4.9102 97.19V29.87C4.9102 15.6542 16.4344 4.13004 30.6502 4.13004Z" fill="#242938" stroke="#085641" stroke-width="7.92"/>
<mask id="mask0_207_388" style="mask-type:luminance" maskUnits="userSpaceOnUse" x="19" y="18" width="90" height="91">
<path d="M108.861 18.98H19.7607V108.08H108.861V18.98Z" fill="white"/>
</mask>
<g mask="url(#mask0_207_388)">
<path fill-rule="evenodd" clip-rule="evenodd" d="M101.832 88.384C96.9859 88.2493 93.2263 88.7458 90.0757 90.0714C89.1683 90.4358 87.7125 90.4358 87.5927 91.5777C88.0778 92.0569 88.1363 92.841 88.5615 93.5053C89.2876 94.7106 90.5617 96.3342 91.7121 97.1767L95.59 99.9477C97.9531 101.392 100.619 102.236 102.921 103.681C104.255 104.524 105.587 105.608 106.921 106.513C107.6 106.994 108.011 107.779 108.86 108.079V107.896C108.437 107.356 108.314 106.574 107.892 105.969L106.072 104.223C104.316 101.875 102.133 99.8259 99.7702 98.1414C97.8308 96.8163 93.5907 95.0101 92.8026 92.7831L92.6833 92.6479C94.0144 92.5133 95.59 92.0445 96.8636 91.6832C98.9253 91.1431 100.802 91.2619 102.921 90.7204L105.832 89.8769V89.3369C104.741 88.2533 103.953 86.8074 102.803 85.7847C99.7133 83.135 96.3176 80.5447 92.8026 78.3771C90.9246 77.1732 88.5001 76.3886 86.5008 75.367C85.7716 75.0051 84.5614 74.8244 84.1376 74.2225C83.0442 72.8999 82.4398 71.1515 81.6522 69.5849L76.6839 59.1067C75.5934 56.7579 74.9252 54.4092 73.5941 52.2416C67.3517 42.0037 60.5638 35.8015 50.141 29.7182C47.9 28.4534 45.2339 27.9095 42.3994 27.2481L37.8549 27.0052C36.8839 26.584 35.9154 25.4394 35.0666 24.8968C31.6127 22.7291 22.7044 18.032 20.1579 24.2219C18.5212 28.1362 22.5822 31.9898 23.9607 33.978C24.993 35.3628 26.324 36.9286 27.0534 38.4943C27.4608 39.5174 27.5966 40.6026 28.0217 41.6865C28.9901 44.3361 29.9001 47.288 31.1727 49.7581C31.8518 51.0229 32.5648 52.3495 33.4137 53.4929C33.8986 54.1676 34.7474 54.4567 34.9281 55.5402C34.0792 56.7456 34.0208 58.5503 33.5359 60.0581C31.3533 66.8634 32.2022 75.2942 35.292 80.3046C36.2632 81.8094 38.5517 85.1229 41.6565 83.8572C44.3837 82.7732 43.7752 79.3408 44.563 76.3292C44.7463 75.6075 44.6241 75.1254 44.9868 74.6423V74.7774L47.4722 79.7754C49.3506 82.7261 52.624 85.7981 55.3494 87.8469C56.8028 88.931 57.9546 90.7991 59.7718 91.4604V91.2783H59.6525C59.2881 90.7382 58.7422 90.4952 58.2576 90.0739C57.1671 88.9904 55.9553 87.6647 55.1064 86.4609C52.5626 83.089 50.3217 79.3542 48.3211 75.5006C47.35 73.634 46.5011 71.5862 45.7161 69.7195C45.3494 68.9963 45.3494 67.9108 44.745 67.5519C43.835 68.8745 42.504 70.022 41.8344 71.647C40.6827 74.2359 40.5631 77.4281 40.1394 80.7407C39.8949 80.8011 40.0036 80.7407 39.8949 80.8753C37.9581 80.3952 37.2899 78.4053 36.5633 76.7208C34.746 72.445 34.4418 65.5798 36.0173 60.6412C36.4411 59.3765 38.261 55.4016 37.5344 54.1973C37.1677 53.0529 35.9589 52.3915 35.2907 51.4872C34.503 50.3427 33.6568 48.8983 33.1108 47.6336C31.6575 44.2591 30.9309 40.527 29.3541 37.154C28.6247 35.5883 27.3535 33.9618 26.3226 32.5176C25.1709 30.8911 23.901 29.7465 22.991 27.8204C22.6881 27.1455 22.2644 26.0738 22.7493 25.3503C22.8688 24.8685 23.1133 24.6755 23.5954 24.5675C24.3832 23.8926 26.6269 24.7484 27.4146 25.1074C29.6556 26.0117 31.5339 26.854 33.4123 28.1173C34.2612 28.7194 35.1712 29.8639 36.2618 30.1663H37.5358C39.4752 30.5874 41.6551 30.3013 43.471 30.8412C46.6831 31.867 49.5909 33.3706 52.1988 34.9984C60.1361 39.9966 66.6825 47.1031 71.1043 55.5957C71.831 56.9807 72.1339 58.2454 72.8021 59.6908C74.0763 62.643 75.6519 65.6531 76.9215 68.5454C78.1957 71.3758 79.4069 74.2686 81.2246 76.6168C82.1344 77.8816 85.7687 78.5429 87.4041 79.2057C88.6169 79.7457 90.4939 80.2318 91.5874 80.8931C93.6461 82.1579 95.7068 83.6033 97.6447 84.9883C98.6129 85.709 101.645 87.2153 101.825 88.4167L101.832 88.384ZM40.0348 36.0512C39.1976 36.0439 38.363 36.1451 37.5521 36.3523V36.4872H37.6716C38.1564 37.451 39.0053 38.1137 39.6111 38.9573L41.0059 41.8485L41.1254 41.7135C41.9743 41.1115 42.3994 40.1478 42.3994 38.7035C42.0354 38.2824 41.9757 37.8599 41.6728 37.4388C41.3088 36.8368 40.5211 36.5345 40.0348 36.054V36.0512Z" fill="#F5F5F5"/>
</g>
</g>
<defs>
<clipPath id="clip0_207_388">
<rect width="126.72" height="126.72" fill="white" transform="translate(0.949707 0.170044)"/>
</clipPath>
</defs>
</svg>
