<svg width="128" height="128" viewBox="0 0 128 128" fill="none" xmlns="http://www.w3.org/2000/svg">
<g clip-path="url(#clip0_528_2751)">
<path d="M30.24 4.76H97.56C111.776 4.76 123.3 16.2842 123.3 30.5V97.82C123.3 112.036 111.776 123.56 97.56 123.56H30.24C16.0242 123.56 4.50004 112.036 4.50004 97.82V30.5C4.50004 16.2842 16.0242 4.76 30.24 4.76Z" fill="#242938" stroke="#085641" stroke-width="7.92"/>
<path fill-rule="evenodd" clip-rule="evenodd" d="M41.6251 55.25C44.5947 43.3704 52.0206 37.43 63.9001 37.43C81.7201 37.43 83.9476 50.795 92.8576 53.0225C98.7981 54.508 103.995 52.2805 108.45 46.34C105.481 58.2195 98.0546 64.16 86.1751 64.16C68.3551 64.16 66.1276 50.795 57.2176 48.5675C51.2771 47.0821 46.0801 49.3096 41.6251 55.25ZM19.3501 81.98C22.3197 70.1005 29.7455 64.16 41.6251 64.16C59.4451 64.16 61.6726 77.525 70.5826 79.7525C76.5231 81.238 81.7201 79.0105 86.1751 73.07C83.2056 84.9495 75.7796 90.89 63.9001 90.89C46.0801 90.89 43.8526 77.525 34.9426 75.2975C29.0022 73.812 23.8051 76.0395 19.3501 81.98Z" fill="url(#paint0_linear_528_2751)"/>
</g>
<defs>
<linearGradient id="paint0_linear_528_2751" x1="43.3576" y1="37.43" x2="81.4726" y2="92.6225" gradientUnits="userSpaceOnUse">
<stop stop-color="#32B1C1"/>
<stop offset="1" stop-color="#14C6B7"/>
</linearGradient>
<clipPath id="clip0_528_2751">
<rect width="126.72" height="126.72" fill="white" transform="translate(0.540039 0.800003)"/>
</clipPath>
</defs>
</svg>
