<svg width="64" height="64" viewBox="0 0 64 64" fill="none" xmlns="http://www.w3.org/2000/svg">
<path d="M22.6937 36.1712C23.3484 36.6217 23.2731 37.7155 22.5526 38.0512C16.1239 41.0463 11.4432 47.1639 10.4603 54.4543C10.3897 54.9778 10.806 55.4315 11.3342 55.4315H51.6949C52.2232 55.4315 52.6395 54.9778 52.5689 54.4543C51.5859 47.1639 46.9053 41.0463 40.4765 38.0512C39.7561 37.7155 39.6807 36.6217 40.3355 36.1712C44.4182 33.3621 47.0949 28.6569 47.0949 23.3266C47.0949 14.7218 40.1194 7.74625 31.5146 7.74625C22.9098 7.74625 15.9343 14.7218 15.9343 23.3266C15.9343 28.6569 18.611 33.3621 22.6937 36.1712Z" fill="#F5F5F5"/>
</svg>
