<svg width="44" height="49" viewBox="0 0 44 49" fill="none" xmlns="http://www.w3.org/2000/svg">
<path d="M13.1936 29.1764C13.8484 29.6269 13.7731 30.7208 13.0526 31.0564C6.62389 34.0515 1.94321 40.1691 0.960267 47.4596C0.889687 47.9831 1.30598 48.4367 1.8342 48.4367H42.1949C42.7231 48.4367 43.1394 47.9831 43.0688 47.4596C42.0859 40.1691 37.4052 34.0515 30.9765 31.0564C30.256 30.7208 30.1807 29.6269 30.8355 29.1764C34.9181 26.3673 37.5949 21.6622 37.5949 16.3318C37.5949 7.72705 30.6193 0.751495 22.0146 0.751495C13.4098 0.751495 6.43423 7.72705 6.43423 16.3318C6.43423 21.6622 9.11098 26.3673 13.1936 29.1764Z" fill="#F5CB5C"/>
</svg>
