<svg width="1731" height="1366" viewBox="0 0 1731 1366" fill="none" xmlns="http://www.w3.org/2000/svg">
<path fill-rule="evenodd" clip-rule="evenodd" d="M-1467.65 1496.22L-494.781 33.7078C-485.605 19.9126 -466.982 16.1686 -453.187 25.3453L1697.09 1455.73C1710.89 1464.9 1714.63 1483.53 1705.46 1497.32L732.584 2959.83C723.407 2973.63 704.785 2977.37 690.99 2968.2L-1459.29 1537.82C-1473.09 1528.64 -1476.83 1510.02 -1467.65 1496.22ZM-1470.37 1554.47C-1493.36 1539.17 -1499.6 1508.14 -1484.31 1485.14L-511.433 22.6307C-496.139 -0.361263 -465.102 -6.60134 -442.11 8.69304L1708.17 1439.07C1731.16 1454.37 1737.4 1485.41 1722.11 1508.4L749.236 2970.91C733.942 2993.9 702.905 3000.14 679.913 2984.85L-1470.37 1554.47ZM-1309 1496.28L-433.413 180.014C-425.154 167.599 -408.394 164.229 -395.978 172.488L1539.28 1459.83C1551.69 1468.09 1555.06 1484.85 1546.8 1497.27L671.216 2813.53C662.957 2825.94 646.196 2829.31 633.781 2821.05L-1301.47 1533.71C-1313.89 1525.45 -1317.26 1508.69 -1309 1496.28ZM-1311.44 1548.7C-1332.14 1534.93 -1337.75 1507 -1323.99 1486.31L-448.4 170.045C-434.635 149.352 -406.701 143.736 -386.009 157.501L1549.24 1444.84C1569.94 1458.61 1575.55 1486.54 1561.79 1507.24L686.203 2823.5C672.438 2844.19 644.504 2849.81 623.811 2836.04L-1311.44 1548.7Z" fill="#F5F5F5"/>
</svg>
