<svg width="1013" height="2346" viewBox="0 0 1013 2346" fill="none" xmlns="http://www.w3.org/2000/svg">
<path fill-rule="evenodd" clip-rule="evenodd" d="M25.3451 1382.06L922.279 33.7076C931.456 19.9125 950.078 16.1684 963.873 25.345L2312.23 922.279C2326.02 931.456 2329.77 950.078 2320.59 963.873L1423.66 2312.23C1414.48 2326.02 1395.86 2329.77 1382.06 2320.59L33.7077 1423.66C19.9126 1414.48 16.1685 1395.86 25.3451 1382.06ZM22.6306 1440.31C-0.361355 1425.01 -6.60146 1393.98 8.69291 1370.98L905.627 22.6304C920.921 -0.361492 951.958 -6.60157 974.95 8.69281L2323.3 905.627C2346.3 920.921 2352.54 951.958 2337.24 974.95L1440.31 2323.3C1425.01 2346.3 1393.98 2352.54 1370.98 2337.24L22.6306 1440.31ZM140.107 1361.15L947.348 147.634C955.607 135.218 972.367 131.848 984.783 140.107L2198.3 947.348C2210.72 955.607 2214.09 972.367 2205.83 984.783L1398.59 2198.3C1390.33 2210.72 1373.57 2214.09 1361.15 2205.83L147.634 1398.59C135.218 1390.33 131.848 1373.57 140.107 1361.15ZM137.664 1413.57C116.972 1399.81 111.355 1371.88 125.12 1351.18L932.361 137.664C946.126 116.971 974.059 111.355 994.752 125.12L2208.27 932.361C2228.96 946.126 2234.58 974.059 2220.81 994.752L1413.57 2208.27C1399.81 2228.96 1371.88 2234.58 1351.18 2220.81L137.664 1413.57Z" fill="#F5F5F5"/>
</svg>
