<svg width="34" height="35" viewBox="0 0 34 35" fill="none" xmlns="http://www.w3.org/2000/svg">
<path fill-rule="evenodd" clip-rule="evenodd" d="M28.3848 1.8727C29.6659 0.591587 31.743 0.591587 33.0241 1.8727C34.3053 3.15382 34.3053 5.23091 33.0241 6.51203L22.0361 17.5001L33.0241 28.4881C34.3053 29.7692 34.3053 31.8463 33.0241 33.1274C31.743 34.4085 29.6659 34.4085 28.3848 33.1274L17.3968 22.1394L6.40876 33.1274C5.12764 34.4085 3.05054 34.4085 1.76943 33.1274C0.488315 31.8463 0.488315 29.7692 1.76943 28.4881L12.7575 17.5001L1.76943 6.51203C0.488318 5.23091 0.488318 3.15382 1.76943 1.8727C3.05055 0.591587 5.12765 0.591587 6.40876 1.8727L17.3968 12.8607L28.3848 1.8727Z" fill="#F5F5F5"/>
</svg>
