<svg width="59" height="40" viewBox="0 0 59 40" fill="none" xmlns="http://www.w3.org/2000/svg">
<path fill-rule="evenodd" clip-rule="evenodd" d="M58.3 1.01053C58.3 0.452428 57.8476 0 57.2895 0H1.71054C1.15244 0 0.700012 0.452426 0.700012 1.01052V38.4C0.700012 38.9581 1.15244 39.4105 1.71054 39.4105H57.2895C57.8476 39.4105 58.3 38.9581 58.3 38.4V1.01053ZM4.34304 2.22704C3.89871 1.88934 3.26474 1.97579 2.92705 2.42013C2.58935 2.86446 2.6758 3.49843 3.12014 3.83612L28.3653 23.0224C28.4242 23.0694 28.4876 23.1091 28.5541 23.1412C28.6911 23.2077 28.8385 23.2409 28.9853 23.2421C29.2074 23.244 29.4282 23.1729 29.6093 23.0341L55.8647 3.84747C56.3153 3.51818 56.4136 2.88596 56.0843 2.43535C55.755 1.98475 55.1228 1.8864 54.6722 2.21569L29.0066 20.9713L4.34304 2.22704Z" fill="#F5F5F5"/>
</svg>
