<svg width="128" height="128" viewBox="0 0 128 128" fill="none" xmlns="http://www.w3.org/2000/svg">
<g clip-path="url(#clip0_290_500)">
<path d="M97.4549 0.699951H30.1349C13.7321 0.699951 0.434937 13.9971 0.434937 30.4V97.7199C0.434937 114.123 13.7321 127.42 30.1349 127.42H97.4549C113.858 127.42 127.155 114.123 127.155 97.7199V30.4C127.155 13.9971 113.858 0.699951 97.4549 0.699951Z" fill="#242938"/>
<mask id="mask0_290_500" style="mask-type:luminance" maskUnits="userSpaceOnUse" x="30" y="14" width="67" height="100">
<path d="M96.6432 14.5598H30.63V113.56H96.6432V14.5598Z" fill="white"/>
</mask>
<g mask="url(#mask0_290_500)">
<path d="M47.1366 113.56C56.2448 113.56 63.6366 106.168 63.6366 97.0602V80.5598H47.1366C38.0286 80.5598 30.6366 87.9522 30.6366 97.0602C30.6366 106.168 38.0286 113.56 47.1366 113.56Z" fill="#0ACF83"/>
<path d="M30.6366 64.06C30.6366 54.952 38.0286 47.5601 47.1366 47.5601H63.6366V80.5599H47.1366C38.0286 80.5599 30.6366 73.168 30.6366 64.06Z" fill="#A259FF"/>
<path d="M30.6366 31.0598C30.6366 21.9518 38.0286 14.5598 47.1366 14.5598H63.6366V47.5598H47.1366C38.0286 47.5598 30.6366 40.1678 30.6366 31.0598Z" fill="#F24E1E"/>
<path d="M63.6366 14.5598H80.1364C89.2444 14.5598 96.6368 21.9518 96.6368 31.0598C96.6368 40.1678 89.2444 47.5598 80.1364 47.5598H63.6366V14.5598Z" fill="#FF7262"/>
<path d="M96.6368 64.06C96.6368 73.168 89.2444 80.5599 80.1364 80.5599C71.0284 80.5599 63.6366 73.168 63.6366 64.06C63.6366 54.952 71.0284 47.5601 80.1364 47.5601C89.2444 47.5601 96.6368 54.952 96.6368 64.06Z" fill="#1ABCFE"/>
</g>
</g>
<defs>
<clipPath id="clip0_290_500">
<rect width="126.72" height="126.72" fill="white" transform="translate(0.434937 0.699951)"/>
</clipPath>
</defs>
</svg>
