<svg width="766" height="94" viewBox="0 0 766 94" fill="none" xmlns="http://www.w3.org/2000/svg">
<path fill-rule="evenodd" clip-rule="evenodd" d="M766 34.1818H573.827L535.342 0H459.207H383.073H306.939H230.805L192.32 34.1818H-2V94H766V34.1818Z" fill="#1E6D65"/>
<path d="M316.8 30.8V26.4H335.4V30.8H316.8ZM323.28 55V26.4H328.92V55H323.28ZM346.188 46.64V42.76H351.828V46.64H346.188ZM334.588 46.64V42.76H340.228V46.64H334.588ZM342.988 38.2V33.8H343.388V38.2H342.988ZM342.988 55.6V51.2H343.388V55.6H342.988ZM334.588 42.8C334.588 41.0667 334.961 39.5333 335.708 38.2C336.454 36.84 337.454 35.7733 338.708 35C339.988 34.2 341.441 33.8 343.068 33.8V38.2C342.161 38.2 341.454 38.6 340.948 39.4C340.468 40.2 340.228 41.3333 340.228 42.8H334.588ZM351.828 42.8H346.188C346.188 41.3333 345.934 40.2 345.428 39.4C344.948 38.6 344.254 38.2 343.348 38.2V33.8C344.974 33.8 346.414 34.2 347.668 35C348.948 35.7733 349.961 36.84 350.708 38.2C351.454 39.5333 351.828 41.0667 351.828 42.8ZM334.588 46.6H340.228C340.228 48.04 340.468 49.1733 340.948 50C341.454 50.8 342.161 51.2 343.068 51.2V55.6C341.441 55.6 339.988 55.2133 338.708 54.44C337.454 53.64 336.454 52.56 335.708 51.2C334.961 49.84 334.588 48.3067 334.588 46.6ZM351.828 46.6C351.828 48.3067 351.454 49.84 350.708 51.2C349.961 52.56 348.948 53.64 347.668 54.44C346.414 55.2133 344.974 55.6 343.348 55.6V51.2C344.254 51.2 344.948 50.8 345.428 50C345.934 49.1733 346.188 48.04 346.188 46.6H351.828ZM362.152 30.8V26.4H380.752V30.8H362.152ZM368.632 55V26.4H374.272V55H368.632ZM391.539 46.64V42.76H397.179V46.64H391.539ZM379.939 46.64V42.76H385.579V46.64H379.939ZM388.339 38.2V33.8H388.739V38.2H388.339ZM388.339 55.6V51.2H388.739V55.6H388.339ZM379.939 42.8C379.939 41.0667 380.312 39.5333 381.059 38.2C381.806 36.84 382.806 35.7733 384.059 35C385.339 34.2 386.792 33.8 388.419 33.8V38.2C387.512 38.2 386.806 38.6 386.299 39.4C385.819 40.2 385.579 41.3333 385.579 42.8H379.939ZM397.179 42.8H391.539C391.539 41.3333 391.286 40.2 390.779 39.4C390.299 38.6 389.606 38.2 388.699 38.2V33.8C390.326 33.8 391.766 34.2 393.019 35C394.299 35.7733 395.312 36.84 396.059 38.2C396.806 39.5333 397.179 41.0667 397.179 42.8ZM379.939 46.6H385.579C385.579 48.04 385.819 49.1733 386.299 50C386.806 50.8 387.512 51.2 388.419 51.2V55.6C386.792 55.6 385.339 55.2133 384.059 54.44C382.806 53.64 381.806 52.56 381.059 51.2C380.312 49.84 379.939 48.3067 379.939 46.6ZM397.179 46.6C397.179 48.3067 396.806 49.84 396.059 51.2C395.312 52.56 394.299 53.64 393.019 54.44C391.766 55.2133 390.326 55.6 388.699 55.6V51.2C389.606 51.2 390.299 50.8 390.779 50C391.286 49.1733 391.539 48.04 391.539 46.6H397.179ZM400.666 54.92H406.306V63H400.666V54.92ZM406.306 34.4V55H400.666V34.4H406.306ZM417.906 41.72V47.68H412.266V41.72H417.906ZM412.266 47.68H417.906C417.906 49.2 417.599 50.56 416.986 51.76C416.399 52.96 415.586 53.9067 414.546 54.6C413.532 55.2933 412.372 55.64 411.066 55.64L409.426 51.2C410.306 51.2 410.999 50.8933 411.506 50.28C412.012 49.64 412.266 48.7733 412.266 47.68ZM404.546 47.36H406.306C406.306 48.5333 406.586 49.4667 407.146 50.16C407.732 50.8533 408.492 51.2 409.426 51.2L411.066 55.64C409.839 55.64 408.732 55.28 407.746 54.56C406.759 53.8133 405.972 52.8267 405.386 51.6C404.826 50.3467 404.546 48.9333 404.546 47.36ZM412.266 41.72C412.266 40.6267 412.012 39.7733 411.506 39.16C410.999 38.52 410.306 38.2 409.426 38.2L411.066 33.76C412.372 33.76 413.532 34.1067 414.546 34.8C415.586 35.4933 416.399 36.44 416.986 37.64C417.599 38.84 417.906 40.2 417.906 41.72H412.266ZM404.546 42C404.546 40.4267 404.826 39.0267 405.386 37.8C405.972 36.5467 406.759 35.56 407.746 34.84C408.732 34.12 409.839 33.76 411.066 33.76L409.426 38.2C408.492 38.2 407.732 38.5467 407.146 39.24C406.586 39.9333 406.306 40.8533 406.306 42H404.546Z" fill="#F5F5F5"/>
</svg>
