<svg width="768" height="811" viewBox="0 0 768 811" fill="none" xmlns="http://www.w3.org/2000/svg">
<path d="M0 0H768V781.27C768 781.27 643.6 774.456 582.8 772.813C522 771.171 434 772.785 387.6 781.27C316.634 794.246 238.576 804.198 179.6 808.03C120.624 811.862 61.389 812.115 0 808.03V0Z" fill="#0FAC82" fill-opacity="0.3"/>
<path d="M0 0H768V757.161C768 757.161 657.758 742.209 581.2 740.205C504.642 738.201 460.4 744.118 386.8 757.161C311.034 770.589 266.993 783.27 192 793.877C119.6 804.117 0 793.225 0 793.225V0Z" fill="#0FAC82" fill-opacity="0.6"/>
<path d="M0 0H768V733.683C768 733.683 651.005 719.111 576 722.271C500.751 725.441 384 749.988 384 749.988C384 749.988 267.249 774.534 192 777.704C116.995 780.864 0 766.292 0 766.292V0Z" fill="#D2D2D2"/>
<path d="M0 0H768V733.683C768 733.683 651.005 719.111 576 722.271C500.751 725.441 384 749.988 384 749.988C384 749.988 267.249 774.534 192 777.704C116.995 780.864 0 766.292 0 766.292V0Z" fill="#0FAC82"/>
</svg>
