<svg width="1001" height="1001" viewBox="0 0 1001 1001" fill="none" xmlns="http://www.w3.org/2000/svg">
<path d="M787.005 524.181C794.273 528.54 796.65 537.999 792.315 545.308L643.476 796.248C639.141 803.557 629.736 805.948 622.468 801.588C615.201 797.229 612.824 787.77 617.159 780.461L765.998 529.52C770.333 522.212 779.738 519.821 787.005 524.181Z" fill="#F5F5F5"/>
<path d="M449.606 673.192C443.316 667.499 443.316 658.269 449.606 652.577L559.047 553.521C565.336 547.828 575.534 547.828 581.824 553.521C588.113 559.214 588.113 568.444 581.824 574.137L483.772 662.884L581.824 751.632C588.113 757.325 588.113 766.555 581.824 772.248C575.534 777.941 565.336 777.941 559.047 772.248L449.606 673.192Z" fill="#F5F5F5"/>
<path d="M959.868 652.577L850.427 553.521C844.138 547.828 833.94 547.828 827.65 553.521C821.36 559.214 821.36 568.444 827.65 574.137L925.702 662.884L827.65 751.632C821.36 757.325 821.36 766.555 827.65 772.248C833.94 777.941 844.138 777.941 850.427 772.248L959.868 673.192C966.157 667.499 966.157 658.269 959.868 652.577Z" fill="#F5F5F5"/>
<path fill-rule="evenodd" clip-rule="evenodd" d="M780.039 219.479H156.026C132.101 219.479 112.705 239.151 112.705 263.418V672.366C112.705 684.329 122.403 694.027 134.366 694.027C146.328 694.027 156.026 684.329 156.026 672.366V395.237H903.619V351.297H156.026V263.418H780.039V219.479ZM216.675 333.722C231.03 333.722 242.667 321.918 242.667 307.358C242.667 292.797 231.03 280.994 216.675 280.994C202.319 280.994 190.682 292.797 190.682 307.358C190.682 321.918 202.319 333.722 216.675 333.722ZM320.644 307.358C320.644 321.918 309.007 333.722 294.652 333.722C280.297 333.722 268.659 321.918 268.659 307.358C268.659 292.797 280.297 280.994 294.652 280.994C309.007 280.994 320.644 292.797 320.644 307.358ZM372.629 333.722C386.984 333.722 398.621 321.918 398.621 307.358C398.621 292.797 386.984 280.994 372.629 280.994C358.274 280.994 346.637 292.797 346.637 307.358C346.637 321.918 358.274 333.722 372.629 333.722Z" fill="url(#paint0_linear_1150_3167)"/>
<line x1="1001" y1="777.073" x2="333.667" y2="777.073" stroke="#F5F5F5" stroke-opacity="0.7" stroke-width="5.93185"/>
<line x1="889.778" y1="888.295" x2="444.889" y2="888.295" stroke="#F5F5F5" stroke-opacity="0.7" stroke-width="5.93185"/>
<line x1="1001" y1="443.406" x2="111.222" y2="443.406" stroke="#F5F5F5" stroke-opacity="0.7" stroke-width="5.93185"/>
<line x1="889.778" y1="554.628" x2="111.222" y2="554.628" stroke="#F5F5F5" stroke-opacity="0.7" stroke-width="5.93185"/>
<line x1="1001" y1="665.851" x2="308.951" y2="665.85" stroke="#F5F5F5" stroke-opacity="0.7" stroke-width="5.93185"/>
<line x1="1001" y1="109.739" x2="-2.59289e-07" y2="109.739" stroke="#F5F5F5" stroke-opacity="0.7" stroke-width="5.93185"/>
<line x1="1001" y1="220.962" x2="-2.59289e-07" y2="220.962" stroke="#F5F5F5" stroke-opacity="0.7" stroke-width="5.93185"/>
<line x1="1001" y1="332.184" x2="111.222" y2="332.184" stroke="#F5F5F5" stroke-opacity="0.7" stroke-width="5.93185"/>
<line x1="108.256" y1="662.884" x2="108.256" y2="106.773" stroke="#F5F5F5" stroke-opacity="0.7" stroke-width="5.93185"/>
<line x1="219.479" y1="440.44" x2="219.479" y2="106.773" stroke="#F5F5F5" stroke-opacity="0.7" stroke-width="5.93185"/>
<line x1="330.701" y1="662.884" x2="330.701" y2="-1.29645e-07" stroke="#F5F5F5" stroke-opacity="0.7" stroke-width="5.93185"/>
<line x1="441.923" y1="774.107" x2="441.923" y2="-1.29645e-07" stroke="#F5F5F5" stroke-opacity="0.7" stroke-width="5.93185"/>
<line x1="553.145" y1="885.329" x2="553.145" y2="106.773" stroke="#F5F5F5" stroke-opacity="0.7" stroke-width="5.93185"/>
<line x1="664.368" y1="1001" x2="664.368" stroke="#F5F5F5" stroke-opacity="0.7" stroke-width="5.93185"/>
<line x1="775.59" y1="1001" x2="775.59" stroke="#F5F5F5" stroke-opacity="0.7" stroke-width="5.93185"/>
<line x1="886.812" y1="1001" x2="886.812" stroke="#F5F5F5" stroke-opacity="0.7" stroke-width="5.93185"/>
<defs>
<linearGradient id="paint0_linear_1150_3167" x1="566.916" y1="196.881" x2="388.395" y2="827.352" gradientUnits="userSpaceOnUse">
<stop offset="0.449369" stop-color="#F5F5F5"/>
<stop offset="1" stop-color="#F5F5F5" stop-opacity="0"/>
</linearGradient>
</defs>
</svg>
