<svg width="62" height="55" viewBox="0 0 62 55" fill="none" xmlns="http://www.w3.org/2000/svg">
<path d="M60.387 28.6957C61.3044 28.6957 61.7376 27.5636 61.0546 26.9512L31.6676 0.598683C31.2877 0.258017 30.7123 0.258018 30.3324 0.598684L0.945382 26.9512C0.2624 27.5636 0.695635 28.6957 1.61301 28.6957H9.13043C9.68272 28.6957 10.1304 29.1434 10.1304 29.6957V54C10.1304 54.5523 10.5781 55 11.1304 55H23C23.5523 55 24 54.5523 24 54V36.2344C24 35.6821 24.4477 35.2344 25 35.2344H38C38.5523 35.2344 39 35.6821 39 36.2344V54C39 54.5523 39.4477 55 40 55H50.8696C51.4219 55 51.8696 54.5523 51.8696 54V29.6957C51.8696 29.1434 52.3173 28.6957 52.8696 28.6957H60.387Z" fill="#F5F5F5"/>
</svg>
