<svg width="62" height="55" viewBox="0 0 62 55" fill="none" xmlns="http://www.w3.org/2000/svg">
<path d="M60.387 28.6904C61.3044 28.6904 61.7376 27.5584 61.0546 26.9459L31.6676 0.593434C31.2877 0.252768 30.7123 0.252769 30.3324 0.593435L0.945382 26.9459C0.2624 27.5584 0.695635 28.6904 1.61301 28.6904H9.13043C9.68272 28.6904 10.1304 29.1381 10.1304 29.6904V53.9948C10.1304 54.547 10.5781 54.9948 11.1304 54.9948H23C23.5523 54.9948 24 54.547 24 53.9948V36.2291C24 35.6768 24.4477 35.2291 25 35.2291H38C38.5523 35.2291 39 35.6768 39 36.2291V53.9948C39 54.547 39.4477 54.9948 40 54.9948H50.8696C51.4219 54.9948 51.8696 54.547 51.8696 53.9948V29.6904C51.8696 29.1381 52.3173 28.6904 52.8696 28.6904H60.387Z" fill="#F5F5F5"/>
</svg>
