<svg width="41" height="137" viewBox="0 0 41 137" fill="none" xmlns="http://www.w3.org/2000/svg">
<path d="M12.1812 44.6516V30.5563H29.0375V44.6516H12.1812ZM12.1812 105.828V91.7328H29.0375V105.828H12.1812ZM12.1812 30.5563C12.1812 24.6469 13.4406 19.4156 15.9594 14.8625C18.4781 10.3094 21.9172 6.725 26.2766 4.10937C30.6359 1.39687 35.5281 0.0406195 40.9531 0.0406195V13.7C37.2719 13.7 34.3656 15.2016 32.2344 18.2047C30.1031 21.1109 29.0375 25.2281 29.0375 30.5563H12.1812ZM12.1812 105.683H29.0375C29.0375 111.011 30.1031 115.128 32.2344 118.034C34.3656 121.038 37.2719 122.539 40.9531 122.539V136.198C35.5281 136.198 30.6359 134.842 26.2766 132.13C21.9172 129.514 18.4781 125.881 15.9594 121.231C13.4406 116.678 12.1812 111.495 12.1812 105.683ZM29.0375 44.5062C29.0375 50.3187 27.7781 55.55 25.2594 60.2C22.7406 64.7531 19.3016 68.3859 14.9422 71.0984C10.6797 73.7141 5.7875 75.0219 0.265625 75.0219V61.3625C4.04375 61.3625 6.95 59.9094 8.98438 57.0031C11.1156 54 12.1812 49.8344 12.1812 44.5062H29.0375ZM29.0375 91.7328H12.1812C12.1812 86.4047 11.1156 82.2875 8.98438 79.3812C6.95 76.475 4.04375 75.0219 0.265625 75.0219V61.2172C5.7875 61.2172 10.6797 62.5734 14.9422 65.2859C19.3016 67.9016 22.7406 71.5344 25.2594 76.1844C27.7781 80.7375 29.0375 85.9203 29.0375 91.7328Z" fill="#333533" fill-opacity="0.25"/>
</svg>
