<svg width="128" height="128" viewBox="0 0 128 128" fill="none" xmlns="http://www.w3.org/2000/svg">
<g clip-path="url(#clip0_290_473)">
<path d="M97.375 0.699951H30.055C13.6521 0.699951 0.35498 13.9971 0.35498 30.4V97.7199C0.35498 114.123 13.6521 127.42 30.055 127.42H97.375C113.778 127.42 127.075 114.123 127.075 97.7199V30.4C127.075 13.9971 113.778 0.699951 97.375 0.699951Z" fill="#242938"/>
<path d="M24.6882 50.3218H38.7502C42.8775 50.3564 45.8683 51.5464 47.7225 53.8897C49.5768 56.2331 50.1886 59.4337 49.559 63.4917C49.3145 65.346 48.7719 67.1646 47.9324 68.9486C47.1275 70.7326 46.0088 72.3414 44.5743 73.7759C42.825 75.5945 40.9539 76.7488 38.96 77.2389C36.9662 77.7289 34.902 77.9735 32.7686 77.9735H26.4722L24.4783 87.9428H17.185L24.6882 50.3218ZM30.8272 56.3034L27.679 72.0444C27.8889 72.079 28.0988 72.0968 28.3086 72.0968C28.5532 72.0968 28.7987 72.0968 29.0432 72.0968C32.4013 72.1315 35.2 71.7998 37.4384 71.0999C39.6768 70.3653 41.1816 67.8121 41.9508 63.4393C42.5805 59.7664 41.9508 57.6498 40.0619 57.0904C38.2076 56.5311 35.8821 56.2687 33.0834 56.3034C32.6636 56.338 32.2617 56.3558 31.8766 56.3558C31.5271 56.3558 31.1598 56.3558 30.7747 56.3558L30.8272 56.3034Z" fill="#F5F5F5"/>
<path d="M57.8671 40.2998H65.1079L63.0616 50.3216H69.5679C73.1359 50.3919 75.794 51.1264 77.5433 52.5253C79.3273 53.9242 79.852 56.5833 79.1174 60.5008L75.6019 77.9733H68.2561L71.6142 61.2878C71.9637 59.5385 71.8588 58.297 71.2994 57.5624C70.7401 56.8279 69.5332 56.4606 67.679 56.4606L61.8548 56.4081L57.5523 77.9733H50.3114L57.8671 40.2998Z" fill="#F5F5F5"/>
<path d="M86.8929 50.3218H100.955C105.082 50.3564 108.073 51.5464 109.927 53.8897C111.782 56.2331 112.393 59.4337 111.764 63.4917C111.519 65.346 110.977 67.1646 110.137 68.9486C109.332 70.7326 108.214 72.3414 106.779 73.7759C105.03 75.5945 103.159 76.7488 101.165 77.2389C99.1709 77.7289 97.1067 77.9735 94.9733 77.9735H88.6769L86.683 87.9428H79.3897L86.8929 50.3218ZM93.0319 56.3034L89.8837 72.0444C90.0936 72.079 90.3035 72.0968 90.5133 72.0968C90.7579 72.0968 91.0034 72.0968 91.2479 72.0968C94.606 72.1315 97.4047 71.7998 99.6431 71.0999C101.882 70.3653 103.386 67.8121 104.156 63.4393C104.785 59.7664 104.156 57.6498 102.267 57.0904C100.412 56.5311 98.0868 56.2687 95.2881 56.3034C94.8684 56.338 94.4664 56.3558 94.0813 56.3558C93.7318 56.3558 93.3645 56.3558 92.9794 56.3558L93.0319 56.3034Z" fill="#F5F5F5"/>
</g>
<defs>
<clipPath id="clip0_290_473">
<rect width="126.72" height="126.72" fill="white" transform="translate(0.35498 0.699951)"/>
</clipPath>
</defs>
</svg>
