<svg width="46" height="59" viewBox="0 0 46 59" fill="none" xmlns="http://www.w3.org/2000/svg">
<path fill-rule="evenodd" clip-rule="evenodd" d="M45.08 18.6275C45.08 18.3888 44.9852 18.1599 44.8164 17.9911L27.5836 0.758355C27.4148 0.589572 27.1859 0.494751 26.9472 0.494751H1.82001C1.32296 0.494751 0.920013 0.897698 0.920013 1.39475V57.1947C0.920013 57.6918 1.32296 58.0947 1.82001 58.0947H44.18C44.6771 58.0947 45.08 57.6918 45.08 57.1947V18.6275ZM27.32 2.05475C27.5188 2.05475 27.68 2.21593 27.68 2.41475V17.8948H42.68C42.8788 17.8948 43.04 18.0559 43.04 18.2548C43.04 18.4536 42.8788 18.6148 42.68 18.6148H26.96V2.41475C26.96 2.21593 27.1212 2.05475 27.32 2.05475ZM4.52001 9.13475C4.52001 8.47201 5.05727 7.93475 5.72001 7.93475H25.16V10.3348H5.72001C5.05727 10.3348 4.52001 9.79749 4.52001 9.13475ZM5.72001 23.2948C5.05727 23.2948 4.52001 23.832 4.52001 24.4948C4.52001 25.1575 5.05727 25.6948 5.72001 25.6948H40.28C40.9428 25.6948 41.48 25.1575 41.48 24.4948C41.48 23.832 40.9428 23.2948 40.28 23.2948H5.72001ZM4.52001 32.1748C4.52001 31.512 5.05727 30.9748 5.72001 30.9748H40.28C40.9428 30.9748 41.48 31.512 41.48 32.1748C41.48 32.8375 40.9428 33.3748 40.28 33.3748H5.72001C5.05727 33.3748 4.52001 32.8375 4.52001 32.1748ZM5.72001 38.6548C5.05727 38.6548 4.52001 39.192 4.52001 39.8548C4.52001 40.5175 5.05727 41.0548 5.72001 41.0548H40.28C40.9428 41.0548 41.48 40.5175 41.48 39.8548C41.48 39.192 40.9428 38.6548 40.28 38.6548H5.72001ZM4.52001 47.5348C4.52001 46.872 5.05727 46.3348 5.72001 46.3348H40.28C40.9428 46.3348 41.48 46.872 41.48 47.5348C41.48 48.1975 40.9428 48.7348 40.28 48.7348H5.72001C5.05727 48.7348 4.52001 48.1975 4.52001 47.5348ZM5.72001 15.6148C5.05727 15.6148 4.52001 16.152 4.52001 16.8148C4.52001 17.4775 5.05727 18.0148 5.72001 18.0148H25.16V15.6148H5.72001Z" fill="#F5F5F5"/>
</svg>
