<svg width="41" height="137" viewBox="0 0 41 137" fill="none" xmlns="http://www.w3.org/2000/svg">
<path d="M28.7719 44.6516H11.9156V30.5563H28.7719V44.6516ZM28.7719 105.828H11.9156V91.7328H28.7719V105.828ZM28.7719 30.5563H11.9156C11.9156 25.2281 10.85 21.1109 8.71875 18.2047C6.68438 15.2016 3.77813 13.7 0 13.7V0.0406195C5.52188 0.0406195 10.4141 1.39687 14.6766 4.10937C19.0359 6.725 22.475 10.3094 24.9938 14.8625C27.5125 19.4156 28.7719 24.6469 28.7719 30.5563ZM28.7719 105.683C28.7719 111.495 27.5125 116.678 24.9938 121.231C22.475 125.881 19.0359 129.514 14.6766 132.13C10.4141 134.842 5.52188 136.198 0 136.198V122.539C3.77813 122.539 6.68438 121.038 8.71875 118.034C10.85 115.128 11.9156 111.011 11.9156 105.683H28.7719ZM11.9156 44.5062H28.7719C28.7719 49.8344 29.8375 54 31.9688 57.0031C34.1 59.9094 37.0063 61.3625 40.6875 61.3625V75.0219C35.2625 75.0219 30.3703 73.7141 26.0109 71.0984C21.6516 68.3859 18.2125 64.7531 15.6938 60.2C13.175 55.55 11.9156 50.3187 11.9156 44.5062ZM11.9156 91.7328C11.9156 85.9203 13.175 80.7375 15.6938 76.1844C18.2125 71.5344 21.6516 67.9016 26.0109 65.2859C30.3703 62.5734 35.2625 61.2172 40.6875 61.2172V75.0219C37.0063 75.0219 34.1 76.475 31.9688 79.3812C29.8375 82.2875 28.7719 86.4047 28.7719 91.7328H11.9156Z" fill="#333533" fill-opacity="0.25"/>
</svg>
