<svg width="128" height="128" viewBox="0 0 128 128" fill="none" xmlns="http://www.w3.org/2000/svg">
<g clip-path="url(#clip0_290_452)">
<path d="M97.935 0.699951H30.615C14.2122 0.699951 0.915039 13.9971 0.915039 30.4V97.7199C0.915039 114.123 14.2122 127.42 30.615 127.42H97.935C114.338 127.42 127.635 114.123 127.635 97.7199V30.4C127.635 13.9971 114.338 0.699951 97.935 0.699951Z" fill="#CD6799"/>
<mask id="mask0_290_452" style="mask-type:luminance" maskUnits="userSpaceOnUse" x="14" y="26" width="100" height="76">
<path d="M113.775 26.9348H14.775V101.14H113.775V26.9348Z" fill="white"/>
</mask>
<g mask="url(#mask0_290_452)">
<path d="M99.9679 69.5854C96.5158 69.6032 93.5161 70.4348 91.004 71.6634C90.0823 69.8383 89.1606 68.2118 88.9978 67.0188C88.8171 65.6274 88.6003 64.778 88.8171 63.1153C89.0339 61.4526 90.01 59.0855 89.9917 58.9048C89.9739 58.7236 89.7749 57.8747 87.787 57.8564C85.7991 57.8386 84.0824 58.236 83.8834 58.7602C83.6844 59.284 83.3053 60.4769 83.0523 61.706C82.7088 63.5132 79.076 69.9651 76.998 73.3444C76.3292 72.0253 75.7511 70.8684 75.6243 69.9468C75.4437 68.5553 75.2269 67.7059 75.4437 66.0432C75.6605 64.3805 76.6366 62.0129 76.6183 61.8322C76.6005 61.6515 76.4015 60.8021 74.4136 60.7843C72.4256 60.766 70.7085 61.1635 70.51 61.6877C70.311 62.2119 70.0942 63.441 69.6784 64.6334C69.2631 65.8264 64.4378 76.5976 63.1726 79.3805C62.5222 80.808 61.9618 81.9465 61.5644 82.7237C61.5644 82.7237 61.546 82.7781 61.4921 82.8682C61.1486 83.537 60.9496 83.8983 60.9496 83.8983C60.9496 83.8983 60.9496 83.8983 60.9496 83.9166C60.6788 84.4047 60.3892 84.8562 60.2447 84.8562C60.1363 84.8562 59.9378 83.5553 60.2808 81.7842C61.004 78.043 62.7207 72.2238 62.7029 72.0253C62.7029 71.9169 63.0281 70.9046 61.5822 70.3804C60.1724 69.8562 59.6665 70.7239 59.5398 70.7239C59.4136 70.7239 59.323 71.0313 59.323 71.0313C59.323 71.0313 60.8956 64.4889 56.3233 64.4889C53.4676 64.4889 49.528 67.6153 47.5762 70.4348C46.3473 71.1036 43.7268 72.5311 40.9256 74.0671C39.8594 74.6636 38.7569 75.2601 37.7268 75.8204C37.6545 75.7482 37.5823 75.6576 37.5099 75.5853C31.9798 69.6755 21.7509 65.5012 22.1846 57.5673C22.3473 54.6755 23.3413 47.0853 41.8292 37.8684C57.046 30.3684 69.1547 32.4467 71.251 37.0552C74.2507 43.6335 64.7631 55.8501 49.0401 57.6213C43.0401 58.29 39.8955 55.9769 39.1003 55.1096C38.269 54.2058 38.1425 54.1518 37.8353 54.3325C37.3292 54.6032 37.6545 55.4165 37.8353 55.8863C38.3051 57.1154 40.2389 59.284 43.5099 60.3502C46.4015 61.2902 53.4315 61.8144 61.9435 58.5251C71.4678 54.8384 78.9136 44.5913 76.7267 36.007C74.5403 27.2962 60.0823 24.4226 46.4015 29.2841C38.269 32.1757 29.4497 36.7299 23.1063 42.6576C15.5702 49.7058 14.3774 55.8323 14.8654 58.3984C16.6184 67.5069 29.1786 73.4345 34.2027 77.8262C33.9497 77.9707 33.7148 78.0974 33.516 78.2058C31.0039 79.4527 21.4256 84.4587 19.04 89.7542C16.3292 95.7541 19.4738 100.055 21.5521 100.633C28.0039 102.423 34.6365 99.2057 38.1967 93.8924C41.7569 88.579 41.3232 81.6758 39.6786 78.5132C39.6606 78.4771 39.6425 78.441 39.6063 78.4048C40.2569 78.0252 40.9256 77.6277 41.5762 77.248C42.8594 76.4892 44.1244 75.7843 45.2087 75.2056C44.5943 76.8867 44.1425 78.8924 43.9256 81.7842C43.6545 85.1819 45.0461 89.5913 46.8714 91.3263C47.6847 92.0851 48.6425 92.1034 49.2569 92.1034C51.3896 92.1034 52.3475 90.3323 53.4137 88.236C54.7146 85.6694 55.8897 82.6876 55.8897 82.6876C55.8897 82.6876 54.4255 90.7481 58.4013 90.7481C59.8472 90.7481 61.3109 88.8686 61.9618 87.9108C61.9618 87.9286 61.9618 87.9286 61.9618 87.9286C61.9618 87.9286 61.998 87.8747 62.0703 87.7479C62.2148 87.5128 62.3049 87.3683 62.3049 87.3683C62.3049 87.3683 62.3049 87.3505 62.3049 87.3321C62.8835 86.3204 64.1844 84.0251 66.1184 80.2116C68.6122 75.2962 71.0159 69.1518 71.0159 69.1518C71.0159 69.1518 71.2327 70.6516 71.9737 73.1454C72.4073 74.6096 73.3112 76.2179 74.0339 77.7722C73.4557 78.5855 73.0944 79.0369 73.0944 79.0369C73.0944 79.0369 73.0944 79.0369 73.1122 79.0553C72.6425 79.6695 72.1366 80.3383 71.5762 80.9887C69.6061 83.3385 67.2569 86.0313 66.9316 86.8084C66.552 87.7301 66.6426 88.3984 67.3653 88.9409C67.8895 89.3384 68.829 89.3923 69.7868 89.3384C71.5579 89.2117 72.8053 88.778 73.4196 88.5068C74.3774 88.1637 75.4981 87.6395 76.546 86.8624C78.48 85.4348 79.6546 83.3924 79.5462 80.6996C79.4918 79.2176 79.0037 77.7361 78.4077 76.3441C78.5884 76.0912 78.7508 75.8382 78.9314 75.5853C81.9861 71.1214 84.3532 66.2239 84.3532 66.2239C84.3532 66.2239 84.57 67.7237 85.311 70.218C85.6723 71.4827 86.4134 72.8564 87.0643 74.1939C84.1908 76.5253 82.4197 79.2359 81.7871 81.007C80.6486 84.2963 81.5341 85.7778 83.2147 86.1214C83.974 86.2842 85.0581 85.9229 85.8535 85.5793C86.8653 85.2541 88.0583 84.6938 89.1967 83.8622C91.1302 82.4346 92.9919 80.4467 92.8835 77.7539C92.8291 76.5253 92.5038 75.314 92.0519 74.1394C94.4918 73.1276 97.6365 72.5673 101.648 73.037C110.251 74.0493 111.95 79.4166 111.624 81.6758C111.299 83.9345 109.492 85.1635 108.895 85.5432C108.299 85.9229 108.1 86.0491 108.155 86.3204C108.227 86.7178 108.516 86.6995 109.022 86.6273C109.727 86.501 113.54 84.8022 113.703 80.6457C113.974 75.3324 108.914 69.5309 99.9679 69.5854ZM33.6063 91.9589C30.7509 95.067 26.775 96.2421 25.0582 95.2482C23.2148 94.1815 23.9377 89.5913 27.4437 86.3021C29.5762 84.2963 32.3232 82.4346 34.1485 81.2961C34.5641 81.0432 35.1786 80.6818 35.9196 80.2299C36.0461 80.1576 36.1184 80.1215 36.1184 80.1215C36.2629 80.0309 36.4075 79.9408 36.5521 79.8502C37.8353 84.5492 36.6063 88.6879 33.6063 91.9589ZM54.3893 77.8262C53.3954 80.2482 51.3174 86.4466 50.0521 86.1036C48.9678 85.814 48.2991 81.1154 49.8352 76.4709C50.6125 74.1394 52.2569 71.3565 53.2147 70.272C54.769 68.537 56.4857 67.9588 56.9015 68.6637C57.4257 69.5854 55.0041 76.308 54.3893 77.8262ZM71.5401 86.0313C71.1243 86.2481 70.7268 86.3926 70.5461 86.2842C70.4194 86.212 70.7268 85.9229 70.7268 85.9229C70.7268 85.9229 72.8776 83.6092 73.727 82.5613C74.2146 81.9465 74.7932 81.2238 75.4075 80.4106C75.4075 80.4828 75.4075 80.5734 75.4075 80.6457C75.4075 83.4108 72.733 85.2719 71.5401 86.0313ZM84.769 83.0128C84.4616 82.796 84.516 82.0733 85.5461 79.8141C85.9436 78.9285 86.8836 77.447 88.4919 76.0189C88.6725 76.5976 88.7993 77.1574 88.781 77.6816C88.7631 81.1699 86.2688 82.4707 84.769 83.0128Z" fill="#F5F5F5"/>
</g>
</g>
<defs>
<clipPath id="clip0_290_452">
<rect width="126.72" height="126.72" fill="white" transform="translate(0.915039 0.699951)"/>
</clipPath>
</defs>
</svg>
