<svg width="31" height="34" viewBox="0 0 31 34" fill="none" xmlns="http://www.w3.org/2000/svg">
<path fill-rule="evenodd" clip-rule="evenodd" d="M5 13.5C5 8.80558 8.80558 5 13.5 5C18.1944 5 22 8.80558 22 13.5C22 18.1944 18.1944 22 13.5 22C8.80558 22 5 18.1944 5 13.5ZM13.5 0C6.04416 0 0 6.04416 0 13.5C0 20.9558 6.04416 27 13.5 27C15.541 27 17.4761 26.5471 19.2105 25.7363L26.7322 33.258C27.7085 34.2343 29.2915 34.2343 30.2678 33.258C31.2441 32.2817 31.2441 30.6988 30.2678 29.7225L23.3147 22.7694C25.5993 20.3513 27 17.0892 27 13.5C27 6.04416 20.9558 0 13.5 0Z" fill="#F5F5F5"/>
</svg>
