<svg width="16" height="17" viewBox="0 0 16 17" fill="none" xmlns="http://www.w3.org/2000/svg">
<path fill-rule="evenodd" clip-rule="evenodd" d="M2.55216 7.02916C2.55216 4.77953 4.37572 2.95597 6.62506 2.95597C8.8744 2.95597 10.698 4.77953 10.698 7.02916C10.698 9.27878 8.8744 11.1023 6.62506 11.1023C4.37572 11.1023 2.55216 9.27878 2.55216 7.02916ZM6.62506 0.560059C3.05237 0.560059 0.15625 3.45644 0.15625 7.02916C0.15625 10.6019 3.05237 13.4983 6.62506 13.4983C7.6031 13.4983 8.53044 13.2812 9.36153 12.8926L12.9654 16.4967C13.4333 16.9646 14.1918 16.9646 14.6596 16.4968C15.1275 16.029 15.1275 15.2705 14.6597 14.8026L11.3281 11.4709C12.4227 10.3121 13.0939 8.74901 13.0939 7.02916C13.0939 3.45644 10.1977 0.560059 6.62506 0.560059Z" fill="#1E6E65"/>
</svg>
